<svg version="1.1" id="Layer_1" xmlns="http://www.w3.org/2000/svg" xmlns:xlink="http://www.w3.org/1999/xlink" x="0px" y="0px"
	 width="100%" viewBox="0 0 1563 1563" enable-background="new 0 0 1563 1563" xml:space="preserve">
<path fill="#000000" opacity="1.000000" stroke="none" 
	d="
M915.000000,1564.000000 
	C610.000061,1564.000000 305.500122,1564.000000 1.000123,1564.000000 
	C1.000082,1043.000122 1.000082,522.000305 1.000041,1.000332 
	C521.999756,1.000221 1042.999512,1.000221 1563.999512,1.000111 
	C1563.999634,521.999695 1563.999634,1042.999390 1563.999756,1563.999512 
	C1347.833374,1564.000000 1131.666626,1564.000000 915.000000,1564.000000 
M1229.500000,707.946350 
	C924.275818,707.946350 619.051636,707.946350 313.801331,707.946350 
	C313.801331,757.288940 313.801331,805.871887 313.801331,854.468750 
	C626.374817,854.468750 938.582458,854.468750 1250.725342,854.468750 
	C1250.725342,805.489624 1250.725342,756.900940 1250.725342,707.946350 
	C1243.772827,707.946350 1237.136353,707.946350 1229.500000,707.946350 
M694.500061,596.361206 
	C567.630676,596.361206 440.761292,596.361206 313.810669,596.361206 
	C313.810669,621.381470 313.810669,645.598206 313.810669,669.823242 
	C501.853455,669.823242 689.517761,669.823242 877.637268,669.823242 
	C877.637268,667.834167 877.637268,666.198547 877.637268,664.562927 
	C877.637390,643.737671 877.501221,622.910767 877.743774,602.088318 
	C877.797180,597.500793 876.549133,596.244873 871.931580,596.257141 
	C813.121399,596.414001 754.310730,596.361145 694.500061,596.361206 
M931.112610,907.514282 
	C931.112610,927.790710 931.112610,948.067078 931.112610,968.497192 
	C1038.268188,968.497192 1144.810425,968.497192 1251.487549,968.497192 
	C1251.487549,943.888367 1251.487549,919.645996 1251.487549,895.290527 
	C1144.625610,895.290527 1038.069336,895.290527 931.112671,895.290527 
	C931.112671,899.253357 931.112671,902.887817 931.112610,907.514282 
M799.039307,938.440674 
	C799.039307,941.240906 799.039307,944.041077 799.039307,947.097351 
	C800.718018,946.936707 801.938171,946.819946 803.682739,946.653015 
	C803.682739,939.884094 803.682739,933.430603 803.682739,925.877625 
	C809.243225,932.775513 813.935242,938.780090 818.869629,944.578430 
	C820.000427,945.907288 821.965698,946.525940 823.995789,947.739868 
	C823.995789,937.037415 823.995789,927.584595 823.995789,917.870667 
	C822.529724,917.968506 821.289551,918.051270 819.679871,918.158752 
	C819.679871,925.006226 819.679871,931.554626 819.679871,939.012268 
	C814.304199,932.331116 809.628052,926.321533 804.695251,920.530640 
	C803.495300,919.121887 801.451233,918.432190 799.039307,916.945984 
	C799.039307,924.825073 799.039307,931.140198 799.039307,938.440674 
M664.049377,921.530823 
	C658.818298,927.686646 657.953369,934.363464 661.617554,940.303650 
	C665.148193,946.027283 672.485046,948.698181 679.601501,946.850586 
	C685.739441,945.256958 690.133911,940.019104 690.490234,933.457520 
	C690.812622,927.521790 688.665955,922.572388 683.309387,919.650391 
	C676.875916,916.141052 670.539307,916.630676 664.049377,921.530823 
M739.161194,942.663940 
	C746.940674,932.841125 742.776062,919.787537 731.069275,918.186096 
	C725.894104,917.478149 720.541626,918.066833 715.358276,918.066833 
	C715.358276,927.810059 715.358276,937.346985 715.358276,947.136963 
	C723.448547,946.322327 731.749146,949.164124 739.161194,942.663940 
M548.570496,917.919800 
	C545.390625,918.786804 540.717041,918.711121 539.419922,920.766357 
	C537.898865,923.176453 539.314514,927.439880 539.456360,930.899414 
	C540.062744,931.487549 539.386658,931.958069 538.734863,932.460083 
	C535.672424,934.818787 533.258728,937.539001 534.711853,941.767822 
	C536.110107,945.837036 539.561829,947.388611 543.394897,947.127625 
	C547.211609,946.867859 550.961670,945.628784 555.229248,944.714539 
	C555.842102,945.224060 557.082947,946.255859 558.323853,947.287659 
	C558.823059,947.022827 559.322266,946.758057 559.821533,946.493225 
	C559.007629,944.517334 558.193726,942.541443 557.166870,940.048462 
	C557.161926,940.059082 557.461548,939.483093 557.701355,938.883240 
	C559.238159,935.039490 558.178772,931.884827 555.969177,933.701721 
	C555.313232,934.939514 554.657288,936.177368 553.596252,938.179749 
	C551.292358,935.760559 549.398926,933.772400 547.503601,931.782288 
	C554.722839,924.620911 554.982849,922.288269 548.570496,917.919800 
M910.857788,643.948425 
	C911.664246,644.643127 912.454529,645.917297 913.279663,645.940186 
	C919.414856,646.110535 925.556885,646.032593 931.696838,646.032593 
	C931.951782,645.564148 932.206726,645.095642 932.461731,644.627197 
	C931.338257,643.815430 930.252380,642.372803 929.084717,642.303406 
	C924.506470,642.031189 919.902405,642.192017 915.333313,642.192017 
	C915.333313,638.812744 915.333313,636.066895 915.333313,632.989746 
	C920.197693,632.989746 924.810913,632.989746 929.681213,632.989746 
	C929.681213,631.896606 929.774902,630.448242 929.667725,630.433228 
	C924.922852,629.768433 920.160278,629.229919 915.334351,628.668762 
	C915.334351,626.089050 915.334351,623.501709 915.334351,620.620422 
	C918.732605,620.620422 921.875305,620.620605 925.018066,620.620361 
	C931.219543,620.619873 931.219543,620.619812 931.048950,616.999451 
	C924.450500,616.999451 917.846558,616.999451 910.855103,616.999451 
	C910.855103,625.793396 910.855103,634.414795 910.857788,643.948425 
M458.850189,918.097900 
	C457.600433,918.097900 456.350708,918.097900 455.264526,918.097900 
	C455.264526,927.961914 455.264526,937.416748 455.264526,947.100586 
	C456.734741,946.947449 457.956299,946.820129 459.365997,946.673279 
	C459.365997,942.323364 459.365997,938.353821 459.365997,934.313110 
	C465.004974,934.313110 470.404266,934.313110 476.142517,934.313110 
	C476.142517,938.708557 476.142517,942.809265 476.142517,947.023499 
	C477.635620,946.951782 478.780273,946.896851 480.058289,946.835449 
	C480.058289,937.235718 480.058289,927.787842 480.058289,918.096069 
	C478.693604,918.096069 477.470245,918.096069 475.833252,918.096069 
	C475.833252,922.201294 475.833252,926.118286 475.833252,929.956787 
	C470.144257,929.956787 464.870697,929.956787 459.268127,929.956787 
	C459.268127,926.054138 459.268127,922.410034 458.850189,918.097900 
M365.620941,943.075134 
	C365.228210,940.247925 364.835510,937.420776 364.376099,934.113525 
	C369.638916,934.113525 374.228943,934.113525 379.195312,934.113525 
	C379.085419,932.739075 379.096405,930.998047 378.922821,930.979492 
	C374.271088,930.480896 369.600403,930.159363 365.134827,929.823120 
	C365.134827,926.940308 365.134827,924.371704 365.134827,921.661987 
	C369.664032,921.661987 373.825165,921.574768 377.980652,921.690491 
	C381.117218,921.777832 381.695984,920.524231 380.596100,918.032593 
	C373.690704,918.032593 367.059387,918.032593 360.385132,918.032593 
	C360.385132,927.707520 360.385132,937.143494 360.385132,946.815918 
	C367.523315,946.815918 374.437439,946.815918 381.351562,946.815918 
	C381.599609,946.381592 381.847626,945.947327 382.095642,945.513000 
	C380.927216,944.728760 379.801758,943.357483 378.582428,943.268188 
	C374.605988,942.976929 370.595276,943.153564 365.620941,943.075134 
M854.410461,920.819092 
	C848.274353,926.911438 847.166077,934.803162 851.572632,941.025574 
	C855.995667,947.271179 865.543396,949.432251 872.629944,945.403137 
	C874.115845,944.558228 875.273499,942.303223 875.631897,940.508240 
	C876.138245,937.972107 875.760193,935.259277 875.760193,932.705872 
	C872.158325,931.226746 871.530090,932.691589 871.349182,935.676208 
	C871.205505,938.046570 870.827576,941.570618 869.301086,942.480042 
	C863.744080,945.790649 855.885742,942.151978 853.890320,935.968323 
	C852.415222,931.396790 853.368530,927.290283 856.963013,924.179199 
	C861.016174,920.671204 865.746826,920.351868 870.437317,922.824890 
	C872.748413,924.043396 874.544617,925.129578 875.423767,921.591919 
	C868.914368,916.414062 862.669678,916.072083 854.410461,920.819092 
M1142.689087,638.639404 
	C1145.726807,644.687073 1149.077759,646.804932 1154.718018,646.241821 
	C1159.562622,645.758118 1163.737793,642.507507 1164.524780,637.071350 
	C1165.146606,632.776001 1164.869385,628.094971 1163.813965,623.880127 
	C1162.626465,619.138184 1158.659058,616.550537 1153.685547,616.456482 
	C1148.516235,616.358765 1144.232056,618.811096 1143.046265,623.806885 
	C1141.974976,628.320435 1142.511841,633.215759 1142.689087,638.639404 
M965.628235,616.383667 
	C964.640686,616.532471 963.646606,616.647400 962.666748,616.835999 
	C958.510071,617.636047 955.527588,619.804810 955.133118,624.260071 
	C954.718872,628.938354 957.739075,631.141602 961.744141,632.344360 
	C963.970581,633.013000 966.421021,633.216980 968.415649,634.290039 
	C970.111389,635.202332 971.298645,637.059875 972.710876,638.499146 
	C971.041443,639.855896 969.380493,642.332581 967.700989,642.345215 
	C963.735107,642.375061 959.760437,641.232178 954.542419,640.353577 
	C955.365417,641.869629 955.713318,643.630676 956.717773,644.171082 
	C961.635742,646.816833 967.069336,647.540771 972.023132,644.950439 
	C974.243774,643.789185 976.598572,640.521790 976.621033,638.188416 
	C976.643005,635.886841 974.246338,632.900696 972.085266,631.418579 
	C969.747681,629.815369 966.296570,629.936890 963.635864,628.667419 
	C961.933594,627.855225 960.783569,625.885620 959.385986,624.434875 
	C961.032349,623.037231 962.584290,620.624207 964.345520,620.460449 
	C967.668884,620.151245 971.112671,621.136658 975.996399,621.780334 
	C974.775146,620.000732 974.246521,618.331543 973.208130,617.906067 
	C971.101013,617.042419 968.718079,616.851562 965.628235,616.383667 
M1238.503784,642.491577 
	C1236.424438,641.990662 1234.285278,641.658630 1232.280640,640.947021 
	C1229.630249,640.006165 1229.675537,639.878418 1228.379639,643.175232 
	C1232.637573,646.454468 1237.534912,646.852112 1242.549805,645.916504 
	C1246.486206,645.182007 1249.623779,642.599304 1249.522217,638.599731 
	C1249.453125,635.881226 1247.432129,633.062073 1245.805542,630.604675 
	C1245.121704,629.571594 1243.203125,629.355774 1241.747437,628.725708 
	C1244.301025,625.054199 1246.796021,621.466919 1249.864380,617.055420 
	C1241.954346,617.055420 1235.714478,617.055420 1228.010864,617.055420 
	C1232.097534,623.331543 1238.237915,618.654175 1241.955566,621.372192 
	C1239.731323,624.753845 1237.506958,628.135498 1234.966309,631.998230 
	C1243.472534,633.077820 1245.192261,634.006653 1245.271484,637.206421 
	C1245.370728,641.212219 1242.577026,642.100281 1238.503784,642.491577 
M404.537659,935.746765 
	C408.419708,947.835205 422.105743,951.543518 430.265686,941.955566 
	C428.596985,941.567200 426.866943,941.463562 425.461975,942.089539 
	C420.986023,944.083923 416.717804,944.087585 412.746002,941.140991 
	C408.811066,938.221680 407.972015,934.069397 408.962250,929.522034 
	C410.504639,922.438965 418.722321,919.158691 425.689789,923.059265 
	C428.183075,924.455078 429.454803,924.472839 430.422089,921.787048 
	C424.977142,917.043274 418.205536,915.999695 412.265686,919.148071 
	C405.950592,922.495422 403.526520,927.958984 404.537659,935.746765 
M613.449829,940.898865 
	C620.501160,949.002075 630.767517,949.769592 638.189880,941.492126 
	C635.767090,941.492126 634.165405,941.023132 633.071899,941.570129 
	C627.081177,944.566956 621.354980,943.882812 617.723572,939.449646 
	C614.490540,935.502930 614.411499,929.640808 617.536804,925.597107 
	C621.020569,921.089722 626.968384,920.222168 632.837952,923.061584 
	C634.006958,923.627075 635.683655,923.143066 638.419189,923.143066 
	C631.520081,916.544922 623.297974,915.895508 617.093384,920.257141 
	C610.838623,924.653992 609.324768,932.126892 613.449829,940.898865 
M1202.371582,646.033691 
	C1204.169434,646.033691 1205.967407,646.033691 1207.765259,646.033691 
	C1207.933960,645.357178 1208.102661,644.680664 1208.271362,644.004211 
	C1204.848511,639.743042 1198.798096,643.902710 1194.649902,641.528809 
	C1197.246460,638.821167 1199.796509,636.111206 1202.403076,633.456604 
	C1205.859497,629.936401 1208.290894,626.078064 1205.934448,621.008789 
	C1204.157837,617.187012 1198.955811,615.467285 1193.187134,616.930664 
	C1190.741577,617.550964 1188.500732,618.978394 1186.166992,620.039062 
	C1186.322876,620.732727 1186.478882,621.426453 1186.634888,622.120178 
	C1188.209229,621.925842 1189.876831,621.997314 1191.339600,621.484619 
	C1194.920410,620.229370 1198.822998,618.980225 1201.413574,622.417908 
	C1203.997192,625.846436 1201.578491,628.958984 1198.936890,631.527405 
	C1195.601685,634.770325 1192.187378,637.938171 1188.980347,641.303284 
	C1187.932251,642.402893 1187.425049,644.018066 1186.322388,646.033691 
	C1192.119385,646.033691 1196.763306,646.033691 1202.371582,646.033691 
M1100.343140,618.666138 
	C1099.853149,619.757263 1099.363281,620.848328 1098.873291,621.939453 
	C1100.135986,621.909790 1101.562134,622.252380 1102.631714,621.782837 
	C1106.328369,620.159912 1110.358154,618.907043 1113.130859,622.415833 
	C1116.030518,626.085449 1113.043213,629.214661 1110.385742,631.850342 
	C1107.196899,635.012756 1103.838501,638.008728 1100.738403,641.253357 
	C1099.683838,642.357178 1099.189941,643.996704 1098.203247,645.831543 
	C1106.035400,645.831543 1112.809448,645.831543 1119.761719,645.831543 
	C1120.429321,640.472107 1116.442383,642.510315 1114.288086,642.264099 
	C1111.623779,641.959595 1108.898315,642.191223 1105.099365,642.191223 
	C1107.742554,639.656921 1109.426392,638.091187 1111.053711,636.468750 
	C1112.818848,634.708679 1114.729004,633.046570 1116.230957,631.078613 
	C1121.182251,624.591919 1118.196777,617.307190 1110.113525,616.660645 
	C1107.120117,616.421265 1104.008179,617.664185 1100.343140,618.666138 
M327.685028,945.971985 
	C327.685028,938.021545 327.685028,930.071167 327.685028,922.199097 
	C337.258942,920.851562 337.258942,920.851562 337.322845,918.037537 
	C329.407928,918.037537 321.498230,918.037537 313.386963,918.037537 
	C313.386963,919.067993 313.248352,920.515991 313.407440,920.549438 
	C316.511505,921.202637 319.650269,921.690979 323.306091,922.300537 
	C323.306091,930.367371 323.306091,938.598572 323.306091,947.070435 
	C324.969635,946.941650 326.106415,946.853638 327.685028,945.971985 
M1001.794678,620.620483 
	C1003.413696,620.620483 1005.032654,620.620483 1007.054688,620.620483 
	C1007.054688,629.264893 1007.054688,637.532715 1007.054688,646.062500 
	C1008.703186,645.928406 1009.923767,645.829102 1011.470398,645.703247 
	C1011.470398,637.294617 1011.470398,629.203918 1011.470398,621.180847 
	C1020.897278,619.705872 1020.897278,619.705872 1020.959351,617.103882 
	C1013.066589,617.103882 1005.178711,617.103882 997.290833,617.103882 
	C997.084167,617.648865 996.877441,618.193909 996.670715,618.738892 
	C998.077820,619.366028 999.484924,619.993164 1001.794678,620.620483 
M772.047974,943.317261 
	C772.047974,934.915344 772.047974,926.513428 772.047974,917.791809 
	C770.341248,917.977356 769.152466,918.106506 768.143555,918.216187 
	C768.143555,928.002808 768.143555,937.382446 768.143555,946.762146 
	C768.549866,947.039673 768.956177,947.317200 769.362488,947.594727 
	C770.257568,946.489868 771.152710,945.385010 772.047974,943.317261 
z"/>
<path fill="#FD7153" opacity="1.000000" stroke="none" 
	d="
M1230.000000,707.946350 
	C1237.136353,707.946350 1243.772827,707.946350 1250.725342,707.946350 
	C1250.725342,756.900940 1250.725342,805.489624 1250.725342,854.468750 
	C938.582458,854.468750 626.374817,854.468750 313.801331,854.468750 
	C313.801331,805.871887 313.801331,757.288940 313.801331,707.946350 
	C619.051636,707.946350 924.275818,707.946350 1230.000000,707.946350 
M986.860962,787.500000 
	C986.860596,777.672913 986.918518,767.845032 986.796509,758.019470 
	C986.778381,756.559509 986.043884,753.921448 985.416748,753.851929 
	C981.815002,753.453369 977.994934,753.100037 974.590027,754.009033 
	C973.550781,754.286499 973.244568,758.598572 973.198730,761.073914 
	C973.037720,769.770508 973.136230,778.471924 973.136230,788.664307 
	C964.315430,777.888733 956.508484,768.418518 948.779175,758.885437 
	C943.864197,752.823730 941.080872,751.930847 933.374573,754.273560 
	C933.374573,773.354919 933.374573,792.436279 933.374573,811.623840 
	C937.909302,811.623840 942.112854,811.623840 946.931885,811.623840 
	C946.931885,800.401733 946.931885,789.563293 946.931885,777.341064 
	C955.462158,787.688232 963.570740,796.527039 970.456787,806.233215 
	C974.917297,812.520630 980.077393,812.656006 986.860779,811.503662 
	C986.860779,803.745972 986.860779,796.122986 986.860962,787.500000 
M823.577515,771.082031 
	C816.199585,754.980591 797.143799,748.086426 779.979248,755.308716 
	C764.944458,761.634827 757.880981,779.110901 764.130859,794.519897 
	C770.306946,809.746887 789.143921,817.091431 806.290833,810.958008 
	C822.104980,805.301392 829.600891,788.626404 823.577515,771.082031 
M634.472290,776.441467 
	C629.063293,776.441467 623.654358,776.441467 617.842163,776.441467 
	C617.842163,769.525269 617.987061,763.545532 617.735352,757.582581 
	C617.676025,756.178101 616.414673,753.763550 615.474670,753.644592 
	C611.817566,753.181946 608.067261,753.456055 604.478394,753.456055 
	C604.478394,773.574280 604.478394,792.640564 604.478394,811.555847 
	C609.127075,811.555847 613.342529,811.555847 618.154236,811.555847 
	C618.154236,803.533325 618.154236,795.967468 618.154236,788.417969 
	C627.024719,788.417969 635.277283,788.417969 644.086792,788.417969 
	C644.086792,796.312561 644.086792,803.890442 644.086792,811.686829 
	C648.871460,811.686829 653.089172,811.686829 657.807068,811.686829 
	C657.807068,792.901001 657.839294,774.445068 657.704651,755.990356 
	C657.698425,755.137085 656.248230,753.629822 655.383118,753.563232 
	C651.793518,753.286987 648.170349,753.447266 643.956421,753.447266 
	C643.956421,761.411682 643.956421,768.659424 643.956421,776.442139 
	C640.724915,776.442139 638.094116,776.442139 634.472290,776.441467 
M489.400940,753.385986 
	C477.795135,753.385986 466.189331,753.385986 454.489990,753.385986 
	C454.489990,773.354248 454.489990,792.543640 454.489990,811.646240 
	C469.653656,811.646240 484.381592,811.646240 499.177429,811.646240 
	C499.177429,808.017700 499.177429,804.772339 499.177429,800.888855 
	C488.584686,800.888855 478.354248,800.888855 468.108459,800.888855 
	C468.108459,796.319336 468.108459,792.395569 468.108459,787.742798 
	C477.106018,787.742798 485.810089,787.742798 494.420471,787.742798 
	C494.420471,783.770935 494.420471,780.554688 494.420471,776.830566 
	C485.394897,776.830566 476.806580,776.830566 468.224243,776.830566 
	C468.224243,772.592651 468.224243,768.880005 468.224243,764.763367 
	C477.121033,764.763367 485.592896,764.835388 494.061127,764.693359 
	C495.490173,764.669434 497.703064,764.119812 498.191772,763.136353 
	C500.896057,757.694336 497.967743,753.395447 491.860809,753.387817 
	C491.361206,753.387207 490.861603,753.387024 489.400940,753.385986 
M888.585999,812.255127 
	C892.786072,810.728027 897.044922,809.338684 901.149536,807.587952 
	C902.346802,807.077332 903.898438,805.562073 903.934998,804.462280 
	C904.181213,797.056824 904.063293,789.639221 904.063293,782.379272 
	C899.546631,782.379272 895.830811,782.379272 891.839355,782.379272 
	C891.839355,785.998291 891.839905,789.154968 891.839172,792.311584 
	C891.837524,799.640564 890.741333,800.805969 883.356873,801.155273 
	C881.697083,801.233765 880.017517,801.235046 878.365417,801.078308 
	C869.543274,800.241699 863.174805,793.421204 862.767090,784.450989 
	C862.290710,773.970947 867.476379,766.785706 876.643799,764.865662 
	C884.235291,763.275696 890.734131,765.427917 896.700012,770.645081 
	C899.673706,767.928162 902.407349,765.430420 905.272827,762.812317 
	C897.202087,754.010681 887.546570,752.252258 876.986267,752.892456 
	C856.594116,754.128662 843.359924,774.377014 850.504150,793.537170 
	C855.793274,807.722046 870.080505,814.989075 888.585999,812.255127 
M1173.359619,782.072815 
	C1169.852905,774.177307 1166.265625,766.316101 1162.879517,758.369141 
	C1161.546143,755.239563 1160.158813,752.791138 1156.083740,753.349304 
	C1151.968750,753.912903 1147.386597,751.775879 1145.006470,757.954285 
	C1140.949951,768.483398 1135.923462,778.637512 1131.344849,788.967102 
	C1128.070679,796.353943 1124.862549,803.770020 1121.569214,811.300293 
	C1133.516724,813.569031 1134.634644,813.122131 1138.670166,803.427856 
	C1139.793457,800.729309 1141.165649,799.506775 1144.169434,799.660645 
	C1148.648560,799.890076 1153.208008,800.183655 1157.625488,799.614319 
	C1164.802979,798.689270 1169.356445,800.778015 1171.011841,808.285034 
	C1171.331177,809.733093 1173.356812,811.627991 1174.810425,811.839661 
	C1178.360107,812.356506 1182.035522,812.008240 1186.688232,812.008240 
	C1182.140869,801.750793 1177.927246,792.246155 1173.359619,782.072815 
M716.427002,752.621277 
	C714.767700,752.729187 713.106934,752.817749 711.449402,752.948181 
	C696.443787,754.129395 684.533447,766.661072 684.134827,781.679138 
	C683.586853,802.321777 702.159546,816.995667 723.038147,812.401001 
	C729.619446,810.952576 735.529968,808.417725 739.656494,802.237976 
	C736.704346,799.537659 734.076233,797.133667 731.537537,794.811523 
	C720.814880,802.938782 710.287598,803.266357 703.193298,796.054016 
	C696.896790,789.652771 696.234619,778.556213 701.713318,771.254700 
	C708.001587,762.874512 717.524963,762.566772 731.779968,770.469666 
	C734.355286,768.137634 737.015137,765.728943 739.965515,763.057251 
	C733.693909,755.898254 726.110107,752.940674 716.427002,752.621277 
M545.731445,811.990295 
	C559.168884,815.507568 574.394531,810.156555 578.234863,802.019226 
	C575.669189,799.707825 572.997375,797.300842 570.392334,794.953979 
	C559.054138,802.885437 548.568787,803.164185 541.686890,795.941772 
	C535.522400,789.472229 535.166626,777.610291 540.927612,770.625854 
	C547.444092,762.725403 557.632324,762.692810 570.824585,770.843872 
	C573.183716,768.298767 575.635498,765.653687 578.061707,763.036133 
	C571.918457,754.110840 557.547241,750.214355 544.964661,753.926270 
	C531.735291,757.829102 523.215088,768.559692 523.002014,781.586792 
	C522.756958,796.567932 530.114319,806.699280 545.731445,811.990295 
M398.104889,807.304932 
	C398.214172,808.743958 398.323456,810.182983 398.432861,811.623901 
	C403.064362,811.623901 407.278137,811.623901 412.142456,811.623901 
	C412.142456,795.872559 412.142456,780.507874 412.142456,764.714966 
	C418.562225,764.714966 424.326904,764.714966 430.418060,764.714966 
	C430.523560,762.663208 430.473175,761.021790 430.715363,759.424683 
	C431.443512,754.622681 429.549591,753.138489 424.689148,753.273865 
	C412.549316,753.612000 400.393768,753.385193 388.244507,753.385742 
	C378.346863,753.386169 378.343781,753.386963 379.480804,763.437988 
	C379.514709,763.737427 379.769348,764.011902 380.248413,764.915405 
	C385.805695,764.915405 391.700226,764.915405 398.104767,764.915405 
	C398.104767,779.137146 398.104767,792.740295 398.104889,807.304932 
M1062.551514,764.866211 
	C1065.947754,764.866211 1069.344116,764.866211 1073.144775,764.866211 
	C1073.144775,781.013428 1073.144775,796.252625 1073.144775,811.689880 
	C1077.785522,811.689880 1081.996338,811.689880 1086.757568,811.689880 
	C1086.757568,803.759827 1086.757568,796.148743 1086.757568,788.537659 
	C1086.757568,780.793213 1086.757568,773.048767 1086.757568,764.728027 
	C1093.264282,764.728027 1098.995728,764.728027 1104.783813,764.728027 
	C1104.783813,760.718994 1104.783813,757.319763 1104.783813,753.392212 
	C1102.650391,753.392212 1100.856201,753.392273 1099.062134,753.392273 
	C1087.087280,753.392334 1075.112305,753.392212 1063.137451,753.392273 
	C1053.065430,753.392273 1052.743286,753.810059 1054.884033,764.866638 
	C1057.032593,764.866638 1059.309937,764.866638 1062.551514,764.866211 
M1016.920044,800.480835 
	C1016.920044,804.225037 1016.920044,807.969299 1016.920044,811.764648 
	C1021.849121,811.764648 1025.945679,811.764648 1029.906738,811.764648 
	C1030.202759,811.224854 1030.495972,810.939209 1030.497192,810.652466 
	C1030.573486,792.533875 1030.666138,774.415039 1030.569580,756.297180 
	C1030.564453,755.334656 1029.011230,753.641846 1028.062134,753.554382 
	C1024.498901,753.226013 1020.887207,753.422913 1016.920227,753.422913 
	C1016.920227,769.261963 1016.920227,784.374817 1016.920044,800.480835 
z"/>
<path fill="#FB7054" opacity="1.000000" stroke="none" 
	d="
M695.000122,596.361389 
	C754.310730,596.361145 813.121399,596.414001 871.931580,596.257141 
	C876.549133,596.244873 877.797180,597.500793 877.743774,602.088318 
	C877.501221,622.910767 877.637390,643.737671 877.637268,664.562927 
	C877.637268,666.198547 877.637268,667.834167 877.637268,669.823242 
	C689.517761,669.823242 501.853455,669.823242 313.810669,669.823242 
	C313.810669,645.598206 313.810669,621.381470 313.810669,596.361206 
	C440.761292,596.361206 567.630676,596.361206 695.000122,596.361389 
M740.178467,641.662781 
	C741.526611,642.127686 742.874756,642.592590 744.839355,643.270020 
	C744.839355,635.134583 744.954102,627.983154 744.743591,620.841248 
	C744.700989,619.396423 743.428833,617.987915 742.723572,616.562622 
	C741.968140,617.924683 740.655212,619.249634 740.561462,620.655823 
	C740.275024,624.955444 740.457336,629.286316 740.457336,634.451782 
	C733.081482,628.715759 730.443665,620.085144 721.881592,615.600586 
	C721.881592,624.530884 721.806458,631.996155 721.958923,639.456848 
	C721.982971,640.635498 723.034668,641.793091 723.611145,642.960327 
	C724.378174,641.803955 725.738708,640.681396 725.806946,639.485107 
	C726.067749,634.918091 725.912292,630.327271 725.912292,625.745361 
	C726.252563,625.626526 726.592834,625.507690 726.933105,625.388855 
	C731.183350,630.619568 735.433655,635.850281 740.178467,641.662781 
M766.016724,622.703979 
	C766.016724,629.287659 766.016724,635.871338 766.016724,642.786194 
	C771.503845,642.786194 776.486267,643.294861 781.317200,642.656555 
	C787.273621,641.869751 791.427490,636.368286 791.649719,630.312195 
	C791.867065,624.392395 788.421814,618.813049 782.583557,617.567017 
	C777.380554,616.456604 771.902649,616.634766 766.274414,616.224426 
	C766.153442,618.822937 766.085083,620.292114 766.016724,622.703979 
M514.097595,635.850891 
	C518.479065,634.118225 521.987549,634.621399 524.435242,639.238831 
	C525.622864,641.479126 527.084534,644.159241 530.903992,642.461853 
	C529.205261,639.823120 527.545288,637.244568 525.858154,634.623840 
	C526.608276,633.916504 527.056091,633.431519 527.565796,633.023865 
	C530.985657,630.288086 531.888428,626.693909 530.474243,622.752014 
	C529.116760,618.968262 526.080750,617.047363 522.024719,616.857483 
	C519.039429,616.717651 516.050232,616.634583 513.069763,616.426697 
	C510.286224,616.232483 509.205872,617.403015 509.275299,620.208191 
	C509.411011,625.691589 509.134155,631.189575 509.402557,636.663147 
	C509.507263,638.798218 510.639923,642.706604 511.273132,642.700256 
	C515.841003,642.654480 512.826843,638.734497 514.097595,635.850891 
M424.155914,634.423767 
	C424.155884,634.756470 424.060608,635.125183 424.170837,635.416138 
	C425.105255,637.882507 422.043396,641.510376 426.361145,642.988403 
	C427.098389,640.588684 427.717346,638.143433 428.616180,635.805786 
	C429.177551,634.345825 430.035431,631.975525 430.977020,631.865295 
	C434.823120,631.414917 438.752686,631.677490 443.045593,631.677490 
	C443.045593,634.981018 442.825348,637.482483 443.145294,639.912842 
	C443.289398,641.007751 444.510925,641.960815 445.243622,642.978271 
	C445.852478,642.020691 446.966858,641.074585 446.988892,640.103638 
	C447.143707,633.287231 447.141174,626.464355 447.002563,619.647339 
	C446.981537,618.612061 445.994446,617.596497 445.454163,616.571777 
	C444.651917,617.555481 443.289215,618.470093 443.157593,619.536621 
	C442.825409,622.228088 443.047455,624.988037 443.047455,627.490845 
	C437.717804,627.490845 433.335846,627.490845 428.562042,627.490845 
	C428.562042,624.895813 428.860199,622.694763 428.460052,620.628967 
	C428.180664,619.186523 426.945221,617.929260 426.136810,616.589294 
	C425.477020,617.882690 424.323151,619.148193 424.248322,620.474609 
	C424.005035,624.785645 424.156616,629.119080 424.155914,634.423767 
M481.067566,618.528564 
	C479.470398,615.719727 477.036804,615.505615 475.721924,618.128784 
	C471.755524,626.041565 468.294922,634.207947 464.637115,642.275452 
	C464.971863,642.588074 465.306610,642.900757 465.641357,643.213379 
	C466.727814,642.787598 468.597595,642.574707 468.780151,641.903198 
	C470.706207,634.817444 476.396332,637.197876 481.007233,636.765869 
	C483.880676,636.496704 485.573395,637.523743 486.816803,640.242188 
	C487.450928,641.628479 489.391174,642.417419 490.741028,643.476379 
	C491.112244,643.084656 491.483429,642.692932 491.854645,642.301270 
	C488.358002,634.598572 484.861389,626.895874 481.067566,618.528564 
M349.877869,637.983704 
	C352.728577,637.585693 355.573639,637.139771 358.431458,636.801819 
	C361.992828,636.380554 364.901306,636.897583 366.166595,641.081299 
	C366.492340,642.158447 368.638397,642.685059 369.948242,643.464539 
	C370.241241,643.107788 370.534271,642.751038 370.827301,642.394226 
	C368.001526,636.064636 365.319000,629.665222 362.279816,623.439819 
	C361.056671,620.934265 359.051544,618.810547 357.402313,616.513000 
	C355.599579,618.863098 353.369720,621.001526 352.079742,623.605652 
	C349.047455,629.726746 346.464203,636.070312 343.699219,642.323914 
	C344.338379,642.735107 344.977509,643.146362 345.616638,643.557556 
	C346.891266,641.933533 348.165894,640.309570 349.877869,637.983704 
M656.154114,633.042725 
	C660.809631,629.369568 665.728943,632.041260 670.944885,631.839294 
	C670.944885,634.909180 670.736084,637.410767 671.038879,639.848755 
	C671.176392,640.955627 672.327698,641.936584 673.019104,642.974670 
	C673.668396,642.043457 674.858215,641.125000 674.880554,640.179077 
	C675.041443,633.364563 675.041199,626.542725 674.878784,619.728333 
	C674.855835,618.766357 673.675598,617.831970 673.031128,616.884766 
	C672.335938,617.928467 671.171753,618.916626 671.040283,620.027100 
	C670.740051,622.562317 670.945496,625.157471 670.945496,627.538696 
	C665.480042,627.538696 660.912292,627.538696 656.018066,627.538696 
	C656.018066,624.488892 656.167542,621.829834 655.929504,619.205933 
	C655.855347,618.388855 654.732422,617.667053 654.089600,616.901611 
	C653.408325,617.636902 652.151428,618.359802 652.135315,619.109436 
	C651.981262,626.256897 651.979187,633.409973 652.113770,640.558044 
	C652.129028,641.367310 653.253723,642.155579 653.863953,642.953613 
	C654.586121,642.108398 655.789795,641.336853 655.932800,640.402893 
	C656.256531,638.288635 656.057251,636.094299 656.154114,633.042725 
M621.899658,616.269653 
	C617.440308,616.942322 613.517639,618.697571 613.302551,623.739563 
	C613.076477,629.038086 617.429565,630.369080 621.584045,631.507751 
	C623.184692,631.946411 624.928467,632.202209 626.295898,633.045654 
	C627.417358,633.737305 628.934448,635.366760 628.740479,636.238953 
	C628.454895,637.523193 626.806030,639.436340 625.733643,639.439087 
	C622.510193,639.447205 619.291138,638.605713 616.055664,638.219849 
	C615.196045,638.117310 614.283325,638.460754 613.394958,638.599426 
	C613.779175,639.548706 614.037231,641.239441 614.567627,641.329773 
	C618.730530,642.038147 623.088379,643.284729 627.088928,642.607910 
	C629.357605,642.224182 631.968689,638.827759 632.808289,636.259460 
	C633.953918,632.754761 631.127563,630.439453 627.886780,629.271484 
	C625.544739,628.427551 622.954468,628.156860 620.760132,627.059998 
	C619.367371,626.363770 618.497681,624.621399 617.393433,623.348145 
	C618.710571,622.247437 619.894531,620.512817 621.377502,620.201233 
	C623.377014,619.781189 625.605652,620.593811 627.737976,620.610046 
	C629.001831,620.619751 630.269531,620.114563 631.535522,619.840881 
	C630.560974,618.922424 629.733032,617.586060 628.578430,617.181030 
	C626.736450,616.534912 624.677185,616.508301 621.899658,616.269653 
M818.810791,631.230225 
	C821.800598,631.230225 824.790405,631.230225 827.780212,631.230225 
	C827.840393,630.367065 827.900574,629.503845 827.960754,628.640686 
	C823.728149,628.283997 819.495544,627.927307 815.234375,627.568176 
	C815.234375,625.029968 815.234375,622.788208 815.234375,620.026733 
	C819.504089,620.026733 823.463745,620.105042 827.414917,619.955811 
	C828.140747,619.928406 828.831726,618.977478 829.538757,618.452820 
	C828.843872,617.909119 828.160095,616.911194 827.452393,616.893921 
	C822.048584,616.762146 816.640137,616.821655 811.348877,616.821655 
	C811.348877,626.035461 811.348877,634.409607 811.348877,642.562866 
	C817.797546,642.562866 823.805237,642.562866 829.812988,642.562866 
	C825.924255,637.050720 819.851807,641.148743 815.071289,638.534424 
	C815.683716,635.968201 812.609375,632.176880 818.810791,631.230225 
M570.373657,624.888855 
	C571.373535,622.348938 572.373352,619.808960 573.511841,616.916992 
	C572.149353,616.756836 571.064941,616.438232 570.954041,616.644104 
	C567.397339,623.247131 563.934814,629.900818 560.180664,637.077271 
	C557.563416,631.096191 555.109009,625.489197 552.656311,619.881409 
	C551.616333,617.503723 550.514404,615.264709 547.055786,617.413086 
	C550.441284,625.100586 553.716064,632.712463 557.187866,640.233337 
	C557.716736,641.378967 559.256714,642.930298 560.153809,642.823425 
	C561.413208,642.673401 562.992432,641.383118 563.588501,640.166016 
	C565.925171,635.394653 567.929504,630.460449 570.373657,624.888855 
M384.911896,618.406128 
	C387.512634,619.252502 390.113373,620.098816 393.345520,621.150635 
	C393.345520,626.665100 393.216309,632.621704 393.437073,638.565186 
	C393.491730,640.037415 394.681335,641.467590 395.349213,642.917053 
	C395.997009,641.499634 397.154419,640.099792 397.203918,638.661865 
	C397.413147,632.584595 397.292572,626.495972 397.292572,620.478699 
	C400.846802,620.099854 403.499542,619.817078 406.602997,619.486267 
	C404.104401,616.498047 392.257874,615.764893 384.911896,618.406128 
M696.761475,642.594482 
	C699.790894,643.810852 700.614136,642.377930 700.585693,639.578430 
	C700.519836,633.086182 700.682007,626.588928 700.460571,620.103577 
	C700.419617,618.902954 699.012634,617.749023 698.236084,616.573547 
	C697.543274,617.840698 696.278442,619.096191 696.252441,620.376831 
	C696.107727,627.528503 696.262817,634.686157 696.761475,642.594482 
z"/>
<path fill="#FB7154" opacity="1.000000" stroke="none" 
	d="
M931.112671,907.018311 
	C931.112671,902.887817 931.112671,899.253357 931.112671,895.290527 
	C1038.069336,895.290527 1144.625610,895.290527 1251.487549,895.290527 
	C1251.487549,919.645996 1251.487549,943.888367 1251.487549,968.497192 
	C1144.810425,968.497192 1038.268188,968.497192 931.112610,968.497192 
	C931.112610,948.067078 931.112610,927.790710 931.112671,907.018311 
M972.896423,941.259155 
	C973.325073,948.709412 974.827759,951.607544 980.137512,951.797607 
	C991.726196,952.212585 1003.344666,952.064087 1014.942627,951.790222 
	C1018.595642,951.703979 1021.253540,949.322144 1021.321533,945.361511 
	C1021.446533,938.075806 1021.412598,930.781677 1021.198181,923.498291 
	C1021.084290,919.626648 1018.593384,917.056274 1014.882935,916.973877 
	C1003.112793,916.712402 991.329346,916.692566 979.559570,916.958435 
	C975.291016,917.054749 973.109619,920.036865 973.044373,924.343994 
	C972.963684,929.666931 972.922485,934.990479 972.896423,941.259155 
M1179.496582,948.790771 
	C1179.655151,952.269043 1181.698975,953.111206 1184.863281,953.064087 
	C1193.683472,952.932678 1202.509766,952.887695 1211.327881,953.076721 
	C1215.343872,953.162781 1217.099243,951.818054 1217.012573,947.628113 
	C1216.830200,938.809692 1216.840576,929.982666 1217.011841,921.163757 
	C1217.086060,917.338928 1215.743896,915.727417 1211.809448,915.798523 
	C1202.823730,915.960938 1193.828857,916.016357 1184.846313,915.782898 
	C1180.564941,915.671631 1179.332642,917.511780 1179.398193,921.441406 
	C1179.545532,930.261169 1179.449097,939.085022 1179.496582,948.790771 
M1164.006348,933.618835 
	C1162.985474,924.876648 1158.114014,918.429077 1151.035034,916.450928 
	C1143.362427,914.307007 1135.248291,916.766174 1130.745483,922.600220 
	C1126.124878,928.586853 1125.435303,937.445251 1129.100098,943.736633 
	C1133.113525,950.626587 1141.480347,954.369446 1149.177368,952.718140 
	C1157.869751,950.853333 1163.291382,944.188416 1164.006348,933.618835 
M1074.093262,924.184631 
	C1074.045410,930.330872 1073.805908,936.483337 1074.004272,942.621643 
	C1074.199097,948.652954 1078.117554,952.691467 1084.026489,952.962830 
	C1089.664551,953.221802 1095.332764,953.218628 1100.971313,952.965881 
	C1106.883667,952.700989 1110.843750,948.582581 1111.030884,942.690491 
	C1111.204956,937.211975 1111.200317,931.720032 1111.042480,926.240723 
	C1110.857788,919.831543 1107.125854,916.091797 1100.697876,915.873230 
	C1095.551880,915.698181 1090.394897,915.879333 1085.244141,915.806213 
	C1079.762817,915.728394 1076.024780,918.074890 1074.093262,924.184631 
M1051.305786,924.039124 
	C1053.066284,923.276978 1054.826782,922.514832 1056.717773,921.696228 
	C1056.717773,919.982910 1056.717773,918.206787 1056.717773,916.486633 
	C1048.405396,914.741821 1044.634766,916.736511 1044.604248,923.719177 
	C1044.583862,928.400391 1043.449585,930.914307 1038.571655,930.610596 
	C1038.571655,932.906860 1038.571655,934.809998 1038.571655,936.772827 
	C1040.552612,937.034119 1042.161621,937.246338 1044.322754,937.531372 
	C1044.322754,942.631836 1044.322754,947.548645 1044.322754,952.737549 
	C1046.657471,952.737549 1048.402344,952.737549 1050.786987,952.737549 
	C1050.786987,948.768005 1050.663696,944.977234 1050.854492,941.202271 
	C1050.920654,939.892456 1051.674194,937.553162 1052.268921,937.502441 
	C1057.030762,937.096069 1056.454346,933.846680 1056.558350,930.411438 
	C1052.570068,930.534668 1049.564209,929.706787 1051.305786,924.039124 
z"/>
<path fill="#F7F7F7" opacity="1.000000" stroke="none" 
	d="
M799.039307,937.947998 
	C799.039307,931.140198 799.039307,924.825073 799.039307,916.945984 
	C801.451233,918.432190 803.495300,919.121887 804.695251,920.530640 
	C809.628052,926.321533 814.304199,932.331116 819.679871,939.012268 
	C819.679871,931.554626 819.679871,925.006226 819.679871,918.158752 
	C821.289551,918.051270 822.529724,917.968506 823.995789,917.870667 
	C823.995789,927.584595 823.995789,937.037415 823.995789,947.739868 
	C821.965698,946.525940 820.000427,945.907288 818.869629,944.578430 
	C813.935242,938.780090 809.243225,932.775513 803.682739,925.877625 
	C803.682739,933.430603 803.682739,939.884094 803.682739,946.653015 
	C801.938171,946.819946 800.718018,946.936707 799.039307,947.097351 
	C799.039307,944.041077 799.039307,941.240906 799.039307,937.947998 
z"/>
<path fill="#EEEEEE" opacity="1.000000" stroke="none" 
	d="
M664.324341,921.292786 
	C670.539307,916.630676 676.875916,916.141052 683.309387,919.650391 
	C688.665955,922.572388 690.812622,927.521790 690.490234,933.457520 
	C690.133911,940.019104 685.739441,945.256958 679.601501,946.850586 
	C672.485046,948.698181 665.148193,946.027283 661.617554,940.303650 
	C657.953369,934.363464 658.818298,927.686646 664.324341,921.292786 
M664.165527,935.738464 
	C664.683594,936.774719 665.083984,937.893250 665.740173,938.833130 
	C668.648987,942.999329 674.703186,944.669434 679.550842,942.722107 
	C684.162048,940.869751 686.796265,935.900024 686.036316,930.486206 
	C685.326599,925.429993 681.144226,921.584900 675.761536,921.319214 
	C668.390564,920.955322 662.412537,926.741760 664.165527,935.738464 
z"/>
<path fill="#EEEEEE" opacity="1.000000" stroke="none" 
	d="
M738.890015,942.914185 
	C731.749146,949.164124 723.448547,946.322327 715.358276,947.136963 
	C715.358276,937.346985 715.358276,927.810059 715.358276,918.066833 
	C720.541626,918.066833 725.894104,917.478149 731.069275,918.186096 
	C742.776062,919.787537 746.940674,932.841125 738.890015,942.914185 
M722.659485,943.207825 
	C724.822998,943.169067 727.000000,943.270447 729.147522,943.064575 
	C735.025452,942.500977 738.938110,938.201660 738.955017,932.459290 
	C738.971497,926.866333 735.370789,922.547852 729.696289,921.919067 
	C726.441833,921.558533 723.114746,921.853699 719.322998,921.853699 
	C719.322998,928.340637 719.239319,934.634644 719.429138,940.920410 
	C719.452759,941.704224 720.924805,942.444275 722.659485,943.207825 
z"/>
<path fill="#EEEEEE" opacity="1.000000" stroke="none" 
	d="
M548.944824,918.006470 
	C554.982849,922.288269 554.722839,924.620911 547.503601,931.782288 
	C549.398926,933.772400 551.292358,935.760559 553.596252,938.179749 
	C554.657288,936.177368 555.313232,934.939514 555.969910,933.700867 
	C558.178772,931.884827 559.238159,935.039490 557.701355,938.883240 
	C557.461548,939.483093 557.161926,940.059082 557.166870,940.048462 
	C558.193726,942.541443 559.007629,944.517334 559.821533,946.493225 
	C559.322266,946.758057 558.823059,947.022827 558.323853,947.287659 
	C557.082947,946.255859 555.842102,945.224060 555.229248,944.714539 
	C550.961670,945.628784 547.211609,946.867859 543.394897,947.127625 
	C539.561829,947.388611 536.110107,945.837036 534.711853,941.767822 
	C533.258728,937.539001 535.672424,934.818787 538.734863,932.460083 
	C539.386658,931.958069 540.062744,931.487549 539.456360,930.899414 
	C539.314514,927.439880 537.898865,923.176453 539.419922,920.766357 
	C540.717041,918.711121 545.390625,918.786804 548.944824,918.006470 
M541.557739,943.293762 
	C544.801514,943.152161 548.045288,943.010559 551.289124,942.868958 
	C551.401855,942.279907 551.514648,941.690857 551.627441,941.101807 
	C548.827942,938.601196 546.028381,936.100647 543.160828,933.539307 
	C537.501343,937.000671 536.993530,938.855957 541.557739,943.293762 
M542.784241,926.752014 
	C544.142700,929.446228 546.088318,928.745483 547.353943,927.037292 
	C548.343567,925.701599 548.444275,923.707336 548.939941,922.005676 
	C547.259949,921.681824 545.050598,920.567078 544.040100,921.243408 
	C542.895386,922.009644 542.825317,924.381409 542.784241,926.752014 
z"/>
<path fill="#EEEEEE" opacity="1.000000" stroke="none" 
	d="
M910.856445,643.492310 
	C910.855103,634.414795 910.855103,625.793396 910.855103,616.999451 
	C917.846558,616.999451 924.450500,616.999451 931.048950,616.999451 
	C931.219543,620.619812 931.219543,620.619873 925.018066,620.620361 
	C921.875305,620.620605 918.732605,620.620422 915.334351,620.620422 
	C915.334351,623.501709 915.334351,626.089050 915.334351,628.668762 
	C920.160278,629.229919 924.922852,629.768433 929.667725,630.433228 
	C929.774902,630.448242 929.681213,631.896606 929.681213,632.989746 
	C924.810913,632.989746 920.197693,632.989746 915.333313,632.989746 
	C915.333313,636.066895 915.333313,638.812744 915.333313,642.192017 
	C919.902405,642.192017 924.506470,642.031189 929.084717,642.303406 
	C930.252380,642.372803 931.338257,643.815430 932.461731,644.627197 
	C932.206726,645.095642 931.951782,645.564148 931.696838,646.032593 
	C925.556885,646.032593 919.414856,646.110535 913.279663,645.940186 
	C912.454529,645.917297 911.664246,644.643127 910.856445,643.492310 
z"/>
<path fill="#F7F7F7" opacity="1.000000" stroke="none" 
	d="
M459.059143,918.431946 
	C459.268127,922.410034 459.268127,926.054138 459.268127,929.956787 
	C464.870697,929.956787 470.144257,929.956787 475.833252,929.956787 
	C475.833252,926.118286 475.833252,922.201294 475.833252,918.096069 
	C477.470245,918.096069 478.693604,918.096069 480.058289,918.096069 
	C480.058289,927.787842 480.058289,937.235718 480.058289,946.835449 
	C478.780273,946.896851 477.635620,946.951782 476.142517,947.023499 
	C476.142517,942.809265 476.142517,938.708557 476.142517,934.313110 
	C470.404266,934.313110 465.004974,934.313110 459.365997,934.313110 
	C459.365997,938.353821 459.365997,942.323364 459.365997,946.673279 
	C457.956299,946.820129 456.734741,946.947449 455.264526,947.100586 
	C455.264526,937.416748 455.264526,927.961914 455.264526,918.097900 
	C456.350708,918.097900 457.600433,918.097900 459.059143,918.431946 
z"/>
<path fill="#E3E3E3" opacity="1.000000" stroke="none" 
	d="
M366.109344,943.112671 
	C370.595276,943.153564 374.605988,942.976929 378.582428,943.268188 
	C379.801758,943.357483 380.927216,944.728760 382.095642,945.513000 
	C381.847626,945.947327 381.599609,946.381592 381.351562,946.815918 
	C374.437439,946.815918 367.523315,946.815918 360.385132,946.815918 
	C360.385132,937.143494 360.385132,927.707520 360.385132,918.032593 
	C367.059387,918.032593 373.690704,918.032593 380.596100,918.032593 
	C381.695984,920.524231 381.117218,921.777832 377.980652,921.690491 
	C373.825165,921.574768 369.664032,921.661987 365.134827,921.661987 
	C365.134827,924.371704 365.134827,926.940308 365.134827,929.823120 
	C369.600403,930.159363 374.271088,930.480896 378.922821,930.979492 
	C379.096405,930.998047 379.085419,932.739075 379.195312,934.113525 
	C374.228943,934.113525 369.638916,934.113525 364.376099,934.113525 
	C364.835510,937.420776 365.228210,940.247925 366.109344,943.112671 
z"/>
<path fill="#EEEEEE" opacity="1.000000" stroke="none" 
	d="
M854.693359,920.582886 
	C862.669678,916.072083 868.914368,916.414062 875.423767,921.591919 
	C874.544617,925.129578 872.748413,924.043396 870.437317,922.824890 
	C865.746826,920.351868 861.016174,920.671204 856.963013,924.179199 
	C853.368530,927.290283 852.415222,931.396790 853.890320,935.968323 
	C855.885742,942.151978 863.744080,945.790649 869.301086,942.480042 
	C870.827576,941.570618 871.205505,938.046570 871.349182,935.676208 
	C871.530090,932.691589 872.158325,931.226746 875.760193,932.705872 
	C875.760193,935.259277 876.138245,937.972107 875.631897,940.508240 
	C875.273499,942.303223 874.115845,944.558228 872.629944,945.403137 
	C865.543396,949.432251 855.995667,947.271179 851.572632,941.025574 
	C847.166077,934.803162 848.274353,926.911438 854.693359,920.582886 
z"/>
<path fill="#EEEEEE" opacity="1.000000" stroke="none" 
	d="
M1142.514282,638.291016 
	C1142.511841,633.215759 1141.974976,628.320435 1143.046265,623.806885 
	C1144.232056,618.811096 1148.516235,616.358765 1153.685547,616.456482 
	C1158.659058,616.550537 1162.626465,619.138184 1163.813965,623.880127 
	C1164.869385,628.094971 1165.146606,632.776001 1164.524780,637.071350 
	C1163.737793,642.507507 1159.562622,645.758118 1154.718018,646.241821 
	C1149.077759,646.804932 1145.726807,644.687073 1142.514282,638.291016 
M1150.236328,621.077759 
	C1145.824097,625.015686 1144.074585,632.327332 1147.040405,637.716064 
	C1148.192139,639.808777 1151.211914,642.229980 1153.251587,642.119446 
	C1155.579346,641.993347 1158.979126,639.635681 1159.729980,637.485474 
	C1160.906616,634.116150 1160.880249,629.991760 1160.220337,626.397095 
	C1159.303101,621.401733 1156.382812,620.016602 1150.236328,621.077759 
z"/>
<path fill="#EEEEEE" opacity="1.000000" stroke="none" 
	d="
M966.038574,616.383545 
	C968.718079,616.851562 971.101013,617.042419 973.208130,617.906067 
	C974.246521,618.331543 974.775146,620.000732 975.996399,621.780334 
	C971.112671,621.136658 967.668884,620.151245 964.345520,620.460449 
	C962.584290,620.624207 961.032349,623.037231 959.385986,624.434875 
	C960.783569,625.885620 961.933594,627.855225 963.635864,628.667419 
	C966.296570,629.936890 969.747681,629.815369 972.085266,631.418579 
	C974.246338,632.900696 976.643005,635.886841 976.621033,638.188416 
	C976.598572,640.521790 974.243774,643.789185 972.023132,644.950439 
	C967.069336,647.540771 961.635742,646.816833 956.717773,644.171082 
	C955.713318,643.630676 955.365417,641.869629 954.542419,640.353577 
	C959.760437,641.232178 963.735107,642.375061 967.700989,642.345215 
	C969.380493,642.332581 971.041443,639.855896 972.710876,638.499146 
	C971.298645,637.059875 970.111389,635.202332 968.415649,634.290039 
	C966.421021,633.216980 963.970581,633.013000 961.744141,632.344360 
	C957.739075,631.141602 954.718872,628.938354 955.133118,624.260071 
	C955.527588,619.804810 958.510071,617.636047 962.666748,616.835999 
	C963.646606,616.647400 964.640686,616.532471 966.038574,616.383545 
z"/>
<path fill="#EEEEEE" opacity="1.000000" stroke="none" 
	d="
M1238.935547,642.474243 
	C1242.577026,642.100281 1245.370728,641.212219 1245.271484,637.206421 
	C1245.192261,634.006653 1243.472534,633.077820 1234.966309,631.998230 
	C1237.506958,628.135498 1239.731323,624.753845 1241.954346,621.368896 
	C1238.237915,618.654175 1232.097534,623.331543 1228.010864,617.055420 
	C1235.714478,617.055420 1241.954346,617.055420 1249.864380,617.055420 
	C1246.796021,621.466919 1244.301025,625.054199 1241.747437,628.725708 
	C1243.203125,629.355774 1245.121704,629.571594 1245.805542,630.604675 
	C1247.432129,633.062073 1249.453125,635.881226 1249.522217,638.599731 
	C1249.623779,642.599304 1246.486206,645.182007 1242.549805,645.916504 
	C1237.534912,646.852112 1232.637573,646.454468 1228.379639,643.175232 
	C1229.675537,639.878418 1229.630249,640.006165 1232.280640,640.947021 
	C1234.285278,641.658630 1236.424438,641.990662 1238.935547,642.474243 
z"/>
<path fill="#EEEEEE" opacity="1.000000" stroke="none" 
	d="
M404.425262,935.352783 
	C403.526520,927.958984 405.950592,922.495422 412.265686,919.148071 
	C418.205536,915.999695 424.977142,917.043274 430.422089,921.787048 
	C429.454803,924.472839 428.183075,924.455078 425.689789,923.059265 
	C418.722321,919.158691 410.504639,922.438965 408.962250,929.522034 
	C407.972015,934.069397 408.811066,938.221680 412.746002,941.140991 
	C416.717804,944.087585 420.986023,944.083923 425.461975,942.089539 
	C426.866943,941.463562 428.596985,941.567200 430.265686,941.955566 
	C422.105743,951.543518 408.419708,947.835205 404.425262,935.352783 
z"/>
<path fill="#EEEEEE" opacity="1.000000" stroke="none" 
	d="
M613.245361,940.580078 
	C609.324768,932.126892 610.838623,924.653992 617.093384,920.257141 
	C623.297974,915.895508 631.520081,916.544922 638.419189,923.143066 
	C635.683655,923.143066 634.006958,923.627075 632.837952,923.061584 
	C626.968384,920.222168 621.020569,921.089722 617.536804,925.597107 
	C614.411499,929.640808 614.490540,935.502930 617.723572,939.449646 
	C621.354980,943.882812 627.081177,944.566956 633.071899,941.570129 
	C634.165405,941.023132 635.767090,941.492126 638.189880,941.492126 
	C630.767517,949.769592 620.501160,949.002075 613.245361,940.580078 
z"/>
<path fill="#EEEEEE" opacity="1.000000" stroke="none" 
	d="
M1201.889404,646.033691 
	C1196.763306,646.033691 1192.119385,646.033691 1186.322388,646.033691 
	C1187.425049,644.018066 1187.932251,642.402893 1188.980347,641.303284 
	C1192.187378,637.938171 1195.601685,634.770325 1198.936890,631.527405 
	C1201.578491,628.958984 1203.997192,625.846436 1201.413574,622.417908 
	C1198.822998,618.980225 1194.920410,620.229370 1191.339600,621.484619 
	C1189.876831,621.997314 1188.209229,621.925842 1186.634888,622.120178 
	C1186.478882,621.426453 1186.322876,620.732727 1186.166992,620.039062 
	C1188.500732,618.978394 1190.741577,617.550964 1193.187134,616.930664 
	C1198.955811,615.467285 1204.157837,617.187012 1205.934448,621.008789 
	C1208.290894,626.078064 1205.859497,629.936401 1202.403076,633.456604 
	C1199.796509,636.111206 1197.246460,638.821167 1194.649902,641.528809 
	C1198.798096,643.902710 1204.848511,639.743042 1208.271362,644.004211 
	C1208.102661,644.680664 1207.933960,645.357178 1207.765259,646.033691 
	C1205.967407,646.033691 1204.169434,646.033691 1201.889404,646.033691 
z"/>
<path fill="#EEEEEE" opacity="1.000000" stroke="none" 
	d="
M1100.646729,618.448608 
	C1104.008179,617.664185 1107.120117,616.421265 1110.113525,616.660645 
	C1118.196777,617.307190 1121.182251,624.591919 1116.230957,631.078613 
	C1114.729004,633.046570 1112.818848,634.708679 1111.053711,636.468750 
	C1109.426392,638.091187 1107.742554,639.656921 1105.099365,642.191223 
	C1108.898315,642.191223 1111.623779,641.959595 1114.288086,642.264099 
	C1116.442383,642.510315 1120.429321,640.472107 1119.761719,645.831543 
	C1112.809448,645.831543 1106.035400,645.831543 1098.203247,645.831543 
	C1099.189941,643.996704 1099.683838,642.357178 1100.738403,641.253357 
	C1103.838501,638.008728 1107.196899,635.012756 1110.385742,631.850342 
	C1113.043213,629.214661 1116.030518,626.085449 1113.130859,622.415833 
	C1110.358154,618.907043 1106.328369,620.159912 1102.631714,621.782837 
	C1101.562134,622.252380 1100.135986,621.909790 1098.873291,621.939453 
	C1099.363281,620.848328 1099.853149,619.757263 1100.646729,618.448608 
z"/>
<path fill="#E3E3E3" opacity="1.000000" stroke="none" 
	d="
M327.464111,946.368774 
	C326.106415,946.853638 324.969635,946.941650 323.306091,947.070435 
	C323.306091,938.598572 323.306091,930.367371 323.306091,922.300537 
	C319.650269,921.690979 316.511505,921.202637 313.407440,920.549438 
	C313.248352,920.515991 313.386963,919.067993 313.386963,918.037537 
	C321.498230,918.037537 329.407928,918.037537 337.322845,918.037537 
	C337.258942,920.851562 337.258942,920.851562 327.685028,922.199097 
	C327.685028,930.071167 327.685028,938.021545 327.464111,946.368774 
z"/>
<path fill="#EEEEEE" opacity="1.000000" stroke="none" 
	d="
M1001.343323,620.620422 
	C999.484924,619.993164 998.077820,619.366028 996.670715,618.738892 
	C996.877441,618.193909 997.084167,617.648865 997.290833,617.103882 
	C1005.178711,617.103882 1013.066589,617.103882 1020.959351,617.103882 
	C1020.897278,619.705872 1020.897278,619.705872 1011.470398,621.180847 
	C1011.470398,629.203918 1011.470398,637.294617 1011.470398,645.703247 
	C1009.923767,645.829102 1008.703186,645.928406 1007.054688,646.062500 
	C1007.054688,637.532715 1007.054688,629.264893 1007.054688,620.620483 
	C1005.032654,620.620483 1003.413696,620.620483 1001.343323,620.620422 
z"/>
<path fill="#FFFAF8" opacity="1.000000" stroke="none" 
	d="
M772.047852,943.798706 
	C771.152710,945.385010 770.257568,946.489868 769.362488,947.594727 
	C768.956177,947.317200 768.549866,947.039673 768.143555,946.762146 
	C768.143555,937.382446 768.143555,928.002808 768.143555,918.216187 
	C769.152466,918.106506 770.341248,917.977356 772.047974,917.791809 
	C772.047974,926.513428 772.047974,934.915344 772.047852,943.798706 
z"/>
<path fill="#FFF9F7" opacity="1.000000" stroke="none" 
	d="
M986.860840,788.000000 
	C986.860779,796.122986 986.860779,803.745972 986.860779,811.503662 
	C980.077393,812.656006 974.917297,812.520630 970.456787,806.233215 
	C963.570740,796.527039 955.462158,787.688232 946.931885,777.341064 
	C946.931885,789.563293 946.931885,800.401733 946.931885,811.623840 
	C942.112854,811.623840 937.909302,811.623840 933.374573,811.623840 
	C933.374573,792.436279 933.374573,773.354919 933.370178,754.272705 
	C941.080872,751.930847 943.864197,752.823730 948.779175,758.885437 
	C956.508484,768.418518 964.315430,777.888733 973.136230,788.664307 
	C973.136230,778.471924 973.037720,769.770508 973.198730,761.073914 
	C973.244568,758.598572 973.550781,754.286499 974.590027,754.009033 
	C977.994934,753.100037 981.815002,753.453369 985.416748,753.851929 
	C986.043884,753.921448 986.778381,756.559509 986.796509,758.019470 
	C986.918518,767.845032 986.860596,777.672913 986.860840,788.000000 
z"/>
<path fill="#FFFAF8" opacity="1.000000" stroke="none" 
	d="
M823.736023,771.440063 
	C829.600891,788.626404 822.104980,805.301392 806.290833,810.958008 
	C789.143921,817.091431 770.306946,809.746887 764.130859,794.519897 
	C757.880981,779.110901 764.944458,761.634827 779.979248,755.308716 
	C797.143799,748.086426 816.199585,754.980591 823.736023,771.440063 
M775.966553,779.926575 
	C775.942139,781.424316 775.834229,782.926086 775.907288,784.419067 
	C776.290100,792.243530 781.201050,798.576416 788.469604,800.692200 
	C796.400269,803.000671 804.929443,800.137634 809.093811,793.297058 
	C813.355164,786.296936 813.328613,778.943237 808.894348,772.059875 
	C804.924683,765.897827 798.767395,763.523315 791.610901,764.428467 
	C783.010986,765.516174 777.945435,770.691956 775.966553,779.926575 
z"/>
<path fill="#FFF9F6" opacity="1.000000" stroke="none" 
	d="
M634.967834,776.441772 
	C638.094116,776.442139 640.724915,776.442139 643.956421,776.442139 
	C643.956421,768.659424 643.956421,761.411682 643.956421,753.447266 
	C648.170349,753.447266 651.793518,753.286987 655.383118,753.563232 
	C656.248230,753.629822 657.698425,755.137085 657.704651,755.990356 
	C657.839294,774.445068 657.807068,792.901001 657.807068,811.686829 
	C653.089172,811.686829 648.871460,811.686829 644.086792,811.686829 
	C644.086792,803.890442 644.086792,796.312561 644.086792,788.417969 
	C635.277283,788.417969 627.024719,788.417969 618.154236,788.417969 
	C618.154236,795.967468 618.154236,803.533325 618.154236,811.555847 
	C613.342529,811.555847 609.127075,811.555847 604.478394,811.555847 
	C604.478394,792.640564 604.478394,773.574280 604.478394,753.456055 
	C608.067261,753.456055 611.817566,753.181946 615.474670,753.644592 
	C616.414673,753.763550 617.676025,756.178101 617.735352,757.582581 
	C617.987061,763.545532 617.842163,769.525269 617.842163,776.441467 
	C623.654358,776.441467 629.063293,776.441467 634.967834,776.441772 
z"/>
<path fill="#FFF9F6" opacity="1.000000" stroke="none" 
	d="
M489.881470,753.386353 
	C490.861603,753.387024 491.361206,753.387207 491.860809,753.387817 
	C497.967743,753.395447 500.896057,757.694336 498.191772,763.136353 
	C497.703064,764.119812 495.490173,764.669434 494.061127,764.693359 
	C485.592896,764.835388 477.121033,764.763367 468.224243,764.763367 
	C468.224243,768.880005 468.224243,772.592651 468.224243,776.830566 
	C476.806580,776.830566 485.394897,776.830566 494.420471,776.830566 
	C494.420471,780.554688 494.420471,783.770935 494.420471,787.742798 
	C485.810089,787.742798 477.106018,787.742798 468.108459,787.742798 
	C468.108459,792.395569 468.108459,796.319336 468.108459,800.888855 
	C478.354248,800.888855 488.584686,800.888855 499.177429,800.888855 
	C499.177429,804.772339 499.177429,808.017700 499.177429,811.646240 
	C484.381592,811.646240 469.653656,811.646240 454.489990,811.646240 
	C454.489990,792.543640 454.489990,773.354248 454.489990,753.385986 
	C466.189331,753.385986 477.795135,753.385986 489.881470,753.386353 
z"/>
<path fill="#FFFAF8" opacity="1.000000" stroke="none" 
	d="
M888.165039,812.367004 
	C870.080505,814.989075 855.793274,807.722046 850.504150,793.537170 
	C843.359924,774.377014 856.594116,754.128662 876.986267,752.892456 
	C887.546570,752.252258 897.202087,754.010681 905.272827,762.812317 
	C902.407349,765.430420 899.673706,767.928162 896.700012,770.645081 
	C890.734131,765.427917 884.235291,763.275696 876.643799,764.865662 
	C867.476379,766.785706 862.290710,773.970947 862.767090,784.450989 
	C863.174805,793.421204 869.543274,800.241699 878.365417,801.078308 
	C880.017517,801.235046 881.697083,801.233765 883.356873,801.155273 
	C890.741333,800.805969 891.837524,799.640564 891.839172,792.311584 
	C891.839905,789.154968 891.839355,785.998291 891.839355,782.379272 
	C895.830811,782.379272 899.546631,782.379272 904.063293,782.379272 
	C904.063293,789.639221 904.181213,797.056824 903.934998,804.462280 
	C903.898438,805.562073 902.346802,807.077332 901.149536,807.587952 
	C897.044922,809.338684 892.786072,810.728027 888.165039,812.367004 
z"/>
<path fill="#FFF9F7" opacity="1.000000" stroke="none" 
	d="
M1173.536621,782.407104 
	C1177.927246,792.246155 1182.140869,801.750793 1186.688232,812.008240 
	C1182.035522,812.008240 1178.360107,812.356506 1174.810425,811.839661 
	C1173.356812,811.627991 1171.331177,809.733093 1171.011841,808.285034 
	C1169.356445,800.778015 1164.802979,798.689270 1157.625488,799.614319 
	C1153.208008,800.183655 1148.648560,799.890076 1144.169434,799.660645 
	C1141.165649,799.506775 1139.793457,800.729309 1138.670166,803.427856 
	C1134.634644,813.122131 1133.516724,813.569031 1121.569214,811.300293 
	C1124.862549,803.770020 1128.070679,796.353943 1131.344849,788.967102 
	C1135.923462,778.637512 1140.949951,768.483398 1145.006470,757.954285 
	C1147.386597,751.775879 1151.968750,753.912903 1156.083740,753.349304 
	C1160.158813,752.791138 1161.546143,755.239563 1162.879517,758.369141 
	C1166.265625,766.316101 1169.852905,774.177307 1173.536621,782.407104 
M1159.250366,780.222290 
	C1157.602295,776.220520 1155.954102,772.218689 1153.804199,766.998352 
	C1150.436646,775.196533 1147.701538,781.854858 1144.871216,788.745117 
	C1151.199463,788.745117 1156.727905,788.745117 1162.739014,788.745117 
	C1161.549683,785.803406 1160.561279,783.358521 1159.250366,780.222290 
z"/>
<path fill="#FFFAF8" opacity="1.000000" stroke="none" 
	d="
M716.843262,752.665527 
	C726.110107,752.940674 733.693909,755.898254 739.965515,763.057251 
	C737.015137,765.728943 734.355286,768.137634 731.779968,770.469666 
	C717.524963,762.566772 708.001587,762.874512 701.713318,771.254700 
	C696.234619,778.556213 696.896790,789.652771 703.193298,796.054016 
	C710.287598,803.266357 720.814880,802.938782 731.537537,794.811523 
	C734.076233,797.133667 736.704346,799.537659 739.656494,802.237976 
	C735.529968,808.417725 729.619446,810.952576 723.038147,812.401001 
	C702.159546,816.995667 683.586853,802.321777 684.134827,781.679138 
	C684.533447,766.661072 696.443787,754.129395 711.449402,752.948181 
	C713.106934,752.817749 714.767700,752.729187 716.843262,752.665527 
z"/>
<path fill="#FFFAF8" opacity="1.000000" stroke="none" 
	d="
M545.333191,811.889771 
	C530.114319,806.699280 522.756958,796.567932 523.002014,781.586792 
	C523.215088,768.559692 531.735291,757.829102 544.964661,753.926270 
	C557.547241,750.214355 571.918457,754.110840 578.061707,763.036133 
	C575.635498,765.653687 573.183716,768.298767 570.824585,770.843872 
	C557.632324,762.692810 547.444092,762.725403 540.927612,770.625854 
	C535.166626,777.610291 535.522400,789.472229 541.686890,795.941772 
	C548.568787,803.164185 559.054138,802.885437 570.392334,794.953979 
	C572.997375,797.300842 575.669189,799.707825 578.234863,802.019226 
	C574.394531,810.156555 559.168884,815.507568 545.333191,811.889771 
z"/>
<path fill="#FFF9F6" opacity="1.000000" stroke="none" 
	d="
M398.104828,806.824158 
	C398.104767,792.740295 398.104767,779.137146 398.104767,764.915405 
	C391.700226,764.915405 385.805695,764.915405 380.248413,764.915405 
	C379.769348,764.011902 379.514709,763.737427 379.480804,763.437988 
	C378.343781,753.386963 378.346863,753.386169 388.244507,753.385742 
	C400.393768,753.385193 412.549316,753.612000 424.689148,753.273865 
	C429.549591,753.138489 431.443512,754.622681 430.715363,759.424683 
	C430.473175,761.021790 430.523560,762.663208 430.418060,764.714966 
	C424.326904,764.714966 418.562225,764.714966 412.142456,764.714966 
	C412.142456,780.507874 412.142456,795.872559 412.142456,811.623901 
	C407.278137,811.623901 403.064362,811.623901 398.432861,811.623901 
	C398.323456,810.182983 398.214172,808.743958 398.104828,806.824158 
z"/>
<path fill="#FFF9F7" opacity="1.000000" stroke="none" 
	d="
M1062.069336,764.866455 
	C1059.309937,764.866638 1057.032593,764.866638 1054.884033,764.866638 
	C1052.743286,753.810059 1053.065430,753.392273 1063.137451,753.392273 
	C1075.112305,753.392212 1087.087280,753.392334 1099.062134,753.392273 
	C1100.856201,753.392273 1102.650391,753.392212 1104.783813,753.392212 
	C1104.783813,757.319763 1104.783813,760.718994 1104.783813,764.728027 
	C1098.995728,764.728027 1093.264282,764.728027 1086.757568,764.728027 
	C1086.757568,773.048767 1086.757568,780.793213 1086.757568,788.537659 
	C1086.757568,796.148743 1086.757568,803.759827 1086.757568,811.689880 
	C1081.996338,811.689880 1077.785522,811.689880 1073.144775,811.689880 
	C1073.144775,796.252625 1073.144775,781.013428 1073.144775,764.866211 
	C1069.344116,764.866211 1065.947754,764.866211 1062.069336,764.866455 
z"/>
<path fill="#FFF9F6" opacity="1.000000" stroke="none" 
	d="
M1016.920166,799.984253 
	C1016.920227,784.374817 1016.920227,769.261963 1016.920227,753.422913 
	C1020.887207,753.422913 1024.498901,753.226013 1028.062134,753.554382 
	C1029.011230,753.641846 1030.564453,755.334656 1030.569580,756.297180 
	C1030.666138,774.415039 1030.573486,792.533875 1030.497192,810.652466 
	C1030.495972,810.939209 1030.202759,811.224854 1029.906738,811.764648 
	C1025.945679,811.764648 1021.849121,811.764648 1016.920044,811.764648 
	C1016.920044,807.969299 1016.920044,804.225037 1016.920166,799.984253 
z"/>
<path fill="#FFEEE7" opacity="1.000000" stroke="none" 
	d="
M739.931152,641.371826 
	C735.433655,635.850281 731.183350,630.619568 726.933105,625.388855 
	C726.592834,625.507690 726.252563,625.626526 725.912292,625.745361 
	C725.912292,630.327271 726.067749,634.918091 725.806946,639.485107 
	C725.738708,640.681396 724.378174,641.803955 723.611206,642.960327 
	C723.034668,641.793091 721.982971,640.635498 721.958923,639.456848 
	C721.806458,631.996155 721.881592,624.530884 721.881592,615.600586 
	C730.443665,620.085144 733.081482,628.715759 740.457336,634.451782 
	C740.457336,629.286316 740.275024,624.955444 740.561462,620.655823 
	C740.655212,619.249634 741.968140,617.924683 742.723572,616.562622 
	C743.428833,617.987915 744.700989,619.396423 744.743591,620.841248 
	C744.954102,627.983154 744.839355,635.134583 744.839355,643.270020 
	C742.874756,642.592590 741.526611,642.127686 739.931152,641.371826 
z"/>
<path fill="#FFEEE7" opacity="1.000000" stroke="none" 
	d="
M766.016724,622.232666 
	C766.085083,620.292114 766.153442,618.822937 766.274414,616.224426 
	C771.902649,616.634766 777.380554,616.456604 782.583557,617.567017 
	C788.421814,618.813049 791.867065,624.392395 791.649719,630.312195 
	C791.427490,636.368286 787.273621,641.869751 781.317200,642.656555 
	C776.486267,643.294861 771.503845,642.786194 766.016724,642.786194 
	C766.016724,635.871338 766.016724,629.287659 766.016724,622.232666 
M770.031311,632.409363 
	C770.031311,634.681030 770.031311,636.952698 770.031311,639.615723 
	C776.291077,639.622253 782.301147,640.825684 785.950195,635.029053 
	C788.201416,631.452942 788.217896,627.226868 785.353760,623.821411 
	C781.227417,618.915039 775.683289,620.023254 770.031799,620.369690 
	C770.031799,624.468018 770.031799,627.957458 770.031311,632.409363 
z"/>
<path fill="#FFEEE7" opacity="1.000000" stroke="none" 
	d="
M513.965027,636.275024 
	C512.826843,638.734497 515.841003,642.654480 511.273132,642.700256 
	C510.639923,642.706604 509.507263,638.798218 509.402557,636.663147 
	C509.134155,631.189575 509.411011,625.691589 509.275299,620.208191 
	C509.205872,617.403015 510.286224,616.232483 513.069763,616.426697 
	C516.050232,616.634583 519.039429,616.717651 522.024719,616.857483 
	C526.080750,617.047363 529.116760,618.968262 530.474243,622.752014 
	C531.888428,626.693909 530.985657,630.288086 527.565796,633.023865 
	C527.056091,633.431519 526.608276,633.916504 525.858154,634.623840 
	C527.545288,637.244568 529.205261,639.823120 530.903992,642.461853 
	C527.084534,644.159241 525.622864,641.479126 524.435242,639.238831 
	C521.987549,634.621399 518.479065,634.118225 513.965027,636.275024 
M521.713379,631.567566 
	C524.717773,630.894348 527.347778,629.486023 526.834778,626.022827 
	C526.565308,624.203491 525.124451,621.518494 523.691528,621.125854 
	C520.664490,620.296387 517.295105,620.692200 514.065918,620.682434 
	C513.861694,620.681824 513.607544,621.500427 513.456604,621.963928 
	C511.244293,628.757751 513.687744,631.959595 521.713379,631.567566 
z"/>
<path fill="#FFEEE7" opacity="1.000000" stroke="none" 
	d="
M424.156067,633.933838 
	C424.156616,629.119080 424.005035,624.785645 424.248322,620.474609 
	C424.323151,619.148193 425.477020,617.882690 426.136780,616.589294 
	C426.945221,617.929260 428.180664,619.186523 428.460052,620.628967 
	C428.860199,622.694763 428.562042,624.895813 428.562042,627.490845 
	C433.335846,627.490845 437.717804,627.490845 443.047455,627.490845 
	C443.047455,624.988037 442.825409,622.228088 443.157593,619.536621 
	C443.289215,618.470093 444.651917,617.555481 445.454163,616.571777 
	C445.994446,617.596497 446.981537,618.612061 447.002563,619.647339 
	C447.141174,626.464355 447.143707,633.287231 446.988892,640.103638 
	C446.966858,641.074585 445.852478,642.020691 445.243591,642.978271 
	C444.510925,641.960815 443.289398,641.007751 443.145294,639.912842 
	C442.825348,637.482483 443.045593,634.981018 443.045593,631.677490 
	C438.752686,631.677490 434.823120,631.414917 430.977020,631.865295 
	C430.035431,631.975525 429.177551,634.345825 428.616180,635.805786 
	C427.717346,638.143433 427.098389,640.588684 426.361145,642.988403 
	C422.043396,641.510376 425.105255,637.882507 424.170837,635.416138 
	C424.060608,635.125183 424.155884,634.756470 424.156067,633.933838 
z"/>
<path fill="#FFEEE7" opacity="1.000000" stroke="none" 
	d="
M481.216156,618.860840 
	C484.861389,626.895874 488.358002,634.598572 491.854645,642.301270 
	C491.483429,642.692932 491.112244,643.084656 490.741028,643.476379 
	C489.391174,642.417419 487.450928,641.628479 486.816803,640.242188 
	C485.573395,637.523743 483.880676,636.496704 481.007233,636.765869 
	C476.396332,637.197876 470.706207,634.817444 468.780151,641.903198 
	C468.597595,642.574707 466.727814,642.787598 465.641357,643.213379 
	C465.306610,642.900757 464.971863,642.588074 464.637115,642.275452 
	C468.294922,634.207947 471.755524,626.041565 475.721924,618.128784 
	C477.036804,615.505615 479.470398,615.719727 481.216156,618.860840 
M473.644653,632.748047 
	C476.651550,632.748047 479.658478,632.748047 483.328888,632.748047 
	C481.628632,628.891052 480.162354,625.564941 478.151886,621.004333 
	C476.253662,625.455139 474.861115,628.720337 473.644653,632.748047 
z"/>
<path fill="#FFEEE7" opacity="1.000000" stroke="none" 
	d="
M349.659180,638.334595 
	C348.165894,640.309570 346.891266,641.933533 345.616638,643.557556 
	C344.977509,643.146362 344.338379,642.735107 343.699219,642.323914 
	C346.464203,636.070312 349.047455,629.726746 352.079742,623.605652 
	C353.369720,621.001526 355.599579,618.863098 357.402313,616.513000 
	C359.051544,618.810547 361.056671,620.934265 362.279816,623.439819 
	C365.319000,629.665222 368.001526,636.064636 370.827301,642.394226 
	C370.534271,642.751038 370.241241,643.107788 369.948242,643.464539 
	C368.638397,642.685059 366.492340,642.158447 366.166595,641.081299 
	C364.901306,636.897583 361.992828,636.380554 358.431458,636.801819 
	C355.573639,637.139771 352.728577,637.585693 349.659180,638.334595 
M358.272827,623.449280 
	C357.577332,623.357483 356.356140,623.017578 356.264954,623.210938 
	C354.817535,626.278381 353.514954,629.414246 352.092377,632.737427 
	C355.716949,632.737427 358.706146,632.737427 362.275543,632.737427 
	C360.898895,629.464172 359.764862,626.767700 358.272827,623.449280 
z"/>
<path fill="#FFEEE7" opacity="1.000000" stroke="none" 
	d="
M656.112427,633.487610 
	C656.057251,636.094299 656.256531,638.288635 655.932800,640.402893 
	C655.789795,641.336853 654.586121,642.108398 653.863953,642.953613 
	C653.253723,642.155579 652.129028,641.367310 652.113770,640.558044 
	C651.979187,633.409973 651.981262,626.256897 652.135315,619.109436 
	C652.151428,618.359802 653.408325,617.636902 654.089600,616.901611 
	C654.732422,617.667053 655.855347,618.388855 655.929504,619.205933 
	C656.167542,621.829834 656.018066,624.488892 656.018066,627.538696 
	C660.912292,627.538696 665.480042,627.538696 670.945496,627.538696 
	C670.945496,625.157471 670.740051,622.562317 671.040283,620.027100 
	C671.171753,618.916626 672.335938,617.928467 673.031067,616.884766 
	C673.675598,617.831970 674.855835,618.766357 674.878784,619.728333 
	C675.041199,626.542725 675.041443,633.364563 674.880554,640.179077 
	C674.858215,641.125000 673.668396,642.043457 673.019104,642.974670 
	C672.327698,641.936584 671.176392,640.955627 671.038879,639.848755 
	C670.736084,637.410767 670.944885,634.909180 670.944885,631.839294 
	C665.728943,632.041260 660.809631,629.369568 656.112427,633.487610 
z"/>
<path fill="#FFEEE7" opacity="1.000000" stroke="none" 
	d="
M622.304749,616.244690 
	C624.677185,616.508301 626.736450,616.534912 628.578430,617.181030 
	C629.733032,617.586060 630.560974,618.922424 631.535522,619.840881 
	C630.269531,620.114563 629.001831,620.619751 627.737976,620.610046 
	C625.605652,620.593811 623.377014,619.781189 621.377502,620.201233 
	C619.894531,620.512817 618.710571,622.247437 617.393433,623.348145 
	C618.497681,624.621399 619.367371,626.363770 620.760132,627.059998 
	C622.954468,628.156860 625.544739,628.427551 627.886780,629.271484 
	C631.127563,630.439453 633.953918,632.754761 632.808289,636.259460 
	C631.968689,638.827759 629.357605,642.224182 627.088928,642.607910 
	C623.088379,643.284729 618.730530,642.038147 614.567627,641.329773 
	C614.037231,641.239441 613.779175,639.548706 613.394958,638.599487 
	C614.283325,638.460754 615.196045,638.117310 616.055664,638.219849 
	C619.291138,638.605713 622.510193,639.447205 625.733643,639.439087 
	C626.806030,639.436340 628.454895,637.523193 628.740479,636.238953 
	C628.934448,635.366760 627.417358,633.737305 626.295898,633.045654 
	C624.928467,632.202209 623.184692,631.946411 621.584045,631.507751 
	C617.429565,630.369080 613.076477,629.038086 613.302551,623.739563 
	C613.517639,618.697571 617.440308,616.942322 622.304749,616.244690 
z"/>
<path fill="#FFF5F1" opacity="1.000000" stroke="none" 
	d="
M818.355469,631.236572 
	C812.609375,632.176880 815.683716,635.968201 815.071289,638.534424 
	C819.851807,641.148743 825.924255,637.050720 829.812988,642.562866 
	C823.805237,642.562866 817.797546,642.562866 811.348877,642.562866 
	C811.348877,634.409607 811.348877,626.035461 811.348877,616.821655 
	C816.640137,616.821655 822.048584,616.762146 827.452393,616.893921 
	C828.160095,616.911194 828.843872,617.909119 829.538757,618.452820 
	C828.831726,618.977478 828.140747,619.928406 827.414917,619.955811 
	C823.463745,620.105042 819.504089,620.026733 815.234375,620.026733 
	C815.234375,622.788208 815.234375,625.029968 815.234375,627.568176 
	C819.495544,627.927307 823.728149,628.283997 827.960754,628.640686 
	C827.900574,629.503845 827.840393,630.367065 827.780212,631.230225 
	C824.790405,631.230225 821.800598,631.230225 818.355469,631.236572 
z"/>
<path fill="#FFEEE7" opacity="1.000000" stroke="none" 
	d="
M570.215454,625.237793 
	C567.929504,630.460449 565.925171,635.394653 563.588501,640.166016 
	C562.992432,641.383118 561.413208,642.673401 560.153809,642.823425 
	C559.256714,642.930298 557.716736,641.378967 557.187866,640.233337 
	C553.716064,632.712463 550.441284,625.100586 547.055786,617.413086 
	C550.514404,615.264709 551.616333,617.503723 552.656311,619.881409 
	C555.109009,625.489197 557.563416,631.096191 560.180664,637.077271 
	C563.934814,629.900818 567.397339,623.247131 570.954041,616.644104 
	C571.064941,616.438232 572.149353,616.756836 573.511841,616.916992 
	C572.373352,619.808960 571.373535,622.348938 570.215454,625.237793 
z"/>
<path fill="#FFF5F1" opacity="1.000000" stroke="none" 
	d="
M385.014832,617.957520 
	C392.257874,615.764893 404.104401,616.498047 406.602997,619.486267 
	C403.499542,619.817078 400.846802,620.099854 397.292572,620.478699 
	C397.292572,626.495972 397.413147,632.584595 397.203918,638.661865 
	C397.154419,640.099792 395.997009,641.499634 395.349243,642.917053 
	C394.681335,641.467590 393.491730,640.037415 393.437073,638.565186 
	C393.216309,632.621704 393.345520,626.665100 393.345520,621.150635 
	C390.113373,620.098816 387.512634,619.252502 385.014832,617.957520 
z"/>
<path fill="#FFEEE7" opacity="1.000000" stroke="none" 
	d="
M696.538452,642.218140 
	C696.262817,634.686157 696.107727,627.528503 696.252441,620.376831 
	C696.278442,619.096191 697.543274,617.840698 698.236084,616.573547 
	C699.012634,617.749023 700.419617,618.902954 700.460571,620.103577 
	C700.682007,626.588928 700.519836,633.086182 700.585693,639.578430 
	C700.614136,642.377930 699.790894,643.810852 696.538452,642.218140 
z"/>
<path fill="#FFFAF8" opacity="1.000000" stroke="none" 
	d="
M972.880310,940.786438 
	C972.922485,934.990479 972.963684,929.666931 973.044373,924.343994 
	C973.109619,920.036865 975.291016,917.054749 979.559570,916.958435 
	C991.329346,916.692566 1003.112793,916.712402 1014.882935,916.973877 
	C1018.593384,917.056274 1021.084290,919.626648 1021.198181,923.498291 
	C1021.412598,930.781677 1021.446533,938.075806 1021.321533,945.361511 
	C1021.253540,949.322144 1018.595642,951.703979 1014.942627,951.790222 
	C1003.344666,952.064087 991.726196,952.212585 980.137512,951.797607 
	C974.827759,951.607544 973.325073,948.709412 972.880310,940.786438 
M1003.909180,934.434937 
	C999.925415,931.803345 995.941711,929.171814 991.228882,926.058594 
	C991.228882,932.117249 991.228882,936.783630 991.228882,942.461304 
	C995.773010,939.723450 999.656189,937.383789 1003.909180,934.434937 
z"/>
<path fill="#FFF9F6" opacity="1.000000" stroke="none" 
	d="
M1179.474365,948.348999 
	C1179.449097,939.085022 1179.545532,930.261169 1179.398193,921.441406 
	C1179.332642,917.511780 1180.564941,915.671631 1184.846313,915.782898 
	C1193.828857,916.016357 1202.823730,915.960938 1211.809448,915.798523 
	C1215.743896,915.727417 1217.086060,917.338928 1217.011841,921.163757 
	C1216.840576,929.982666 1216.830200,938.809692 1217.012573,947.628113 
	C1217.099243,951.818054 1215.343872,953.162781 1211.327881,953.076721 
	C1202.509766,952.887695 1193.683472,952.932678 1184.863281,953.064087 
	C1181.698975,953.111206 1179.655151,952.269043 1179.474365,948.348999 
M1207.558228,946.638245 
	C1208.888916,945.833618 1211.261719,945.140320 1211.361572,944.204346 
	C1211.709473,940.944946 1211.840088,937.431763 1210.922363,934.352112 
	C1210.345947,932.417664 1207.895264,929.967651 1206.023804,929.719299 
	C1202.264404,929.220520 1198.326172,930.070740 1194.076050,930.393433 
	C1194.076050,935.012024 1193.881470,939.325684 1194.210815,943.598938 
	C1194.294922,944.688599 1196.040161,945.650146 1197.022217,946.670593 
	C1197.962769,945.621643 1199.346436,944.712097 1199.731445,943.488464 
	C1200.208374,941.972778 1199.461914,940.061279 1199.972412,938.570007 
	C1200.514282,936.986511 1201.909546,935.695007 1202.932251,934.276062 
	C1203.911133,935.751648 1205.320557,937.108276 1205.768799,938.730530 
	C1206.450073,941.195435 1206.464355,943.844727 1207.558228,946.638245 
M1185.927490,946.326355 
	C1188.281494,947.562378 1189.868652,946.960815 1189.957642,944.227600 
	C1190.107300,939.630005 1189.998657,935.024048 1189.998657,930.200317 
	C1188.133545,930.200317 1186.760986,930.200317 1185.111206,930.200317 
	C1185.013794,931.772766 1184.839478,933.064819 1184.871948,934.351685 
	C1184.967651,938.141418 1185.145386,941.929077 1185.927490,946.326355 
M1185.064331,923.707458 
	C1184.658325,926.317566 1185.490112,928.254639 1188.375488,927.529175 
	C1189.387817,927.274536 1190.824829,924.807007 1190.505859,923.898804 
	C1189.589844,921.291748 1187.522095,921.196228 1185.064331,923.707458 
z"/>
<path fill="#FFF5F1" opacity="1.000000" stroke="none" 
	d="
M1164.009521,934.049805 
	C1163.291382,944.188416 1157.869751,950.853333 1149.177368,952.718140 
	C1141.480347,954.369446 1133.113525,950.626587 1129.100098,943.736633 
	C1125.435303,937.445251 1126.124878,928.586853 1130.745483,922.600220 
	C1135.248291,916.766174 1143.362427,914.307007 1151.035034,916.450928 
	C1158.114014,918.429077 1162.985474,924.876648 1164.009521,934.049805 
M1141.290649,945.204102 
	C1147.722656,946.946106 1152.627808,945.361694 1155.741699,940.536316 
	C1158.499023,936.263428 1158.191650,930.508728 1154.995117,926.557373 
	C1151.670532,922.447815 1145.872559,921.029175 1140.976074,923.127197 
	C1136.288452,925.135742 1133.440308,929.963074 1133.907227,935.227783 
	C1134.205811,938.594604 1134.594604,941.953308 1134.971802,945.593933 
	C1136.611938,945.423767 1138.540039,945.223633 1141.290649,945.204102 
z"/>
<path fill="#FFEEE7" opacity="1.000000" stroke="none" 
	d="
M1074.179199,923.769775 
	C1076.024780,918.074890 1079.762817,915.728394 1085.244141,915.806213 
	C1090.394897,915.879333 1095.551880,915.698181 1100.697876,915.873230 
	C1107.125854,916.091797 1110.857788,919.831543 1111.042480,926.240723 
	C1111.200317,931.720032 1111.204956,937.211975 1111.030884,942.690491 
	C1110.843750,948.582581 1106.883667,952.700989 1100.971313,952.965881 
	C1095.332764,953.218628 1089.664551,953.221802 1084.026489,952.962830 
	C1078.117554,952.691467 1074.199097,948.652954 1074.004272,942.621643 
	C1073.805908,936.483337 1074.045410,930.330872 1074.179199,923.769775 
M1091.563721,949.852844 
	C1093.557495,949.851868 1095.552490,949.892517 1097.544922,949.842468 
	C1104.943359,949.656860 1107.833740,946.808472 1107.947021,939.531738 
	C1108.006470,935.711243 1108.078247,931.883728 1107.919800,928.068726 
	C1107.674805,922.166931 1104.747070,919.208374 1098.906616,918.996277 
	C1094.592407,918.839539 1090.257446,918.790710 1085.952881,919.048218 
	C1084.054443,919.161804 1081.935425,919.757202 1080.389160,920.820984 
	C1075.313354,924.312805 1075.270874,944.910156 1080.598755,947.907959 
	C1083.414917,949.492432 1087.251343,949.263367 1091.563721,949.852844 
z"/>
<path fill="#FFF5F1" opacity="1.000000" stroke="none" 
	d="
M1051.160156,924.452332 
	C1049.564209,929.706787 1052.570068,930.534668 1056.558350,930.411438 
	C1056.454346,933.846680 1057.030762,937.096069 1052.268921,937.502441 
	C1051.674194,937.553162 1050.920654,939.892456 1050.854492,941.202271 
	C1050.663696,944.977234 1050.786987,948.768005 1050.786987,952.737549 
	C1048.402344,952.737549 1046.657471,952.737549 1044.322754,952.737549 
	C1044.322754,947.548645 1044.322754,942.631836 1044.322754,937.531372 
	C1042.161621,937.246338 1040.552612,937.034119 1038.571655,936.772827 
	C1038.571655,934.809998 1038.571655,932.906860 1038.571655,930.610596 
	C1043.449585,930.914307 1044.583862,928.400391 1044.604248,923.719177 
	C1044.634766,916.736511 1048.405396,914.741821 1056.717773,916.486633 
	C1056.717773,918.206787 1056.717773,919.982910 1056.717773,921.696228 
	C1054.826782,922.514832 1053.066284,923.276978 1051.160156,924.452332 
z"/>
<path fill="#060606" opacity="1.000000" stroke="none" 
	d="
M664.093384,935.335938 
	C662.412537,926.741760 668.390564,920.955322 675.761536,921.319214 
	C681.144226,921.584900 685.326599,925.429993 686.036316,930.486206 
	C686.796265,935.900024 684.162048,940.869751 679.550842,942.722107 
	C674.703186,944.669434 668.648987,942.999329 665.740173,938.833130 
	C665.083984,937.893250 664.683594,936.774719 664.093384,935.335938 
z"/>
<path fill="#060606" opacity="1.000000" stroke="none" 
	d="
M722.192627,943.206238 
	C720.924805,942.444275 719.452759,941.704224 719.429138,940.920410 
	C719.239319,934.634644 719.322998,928.340637 719.322998,921.853699 
	C723.114746,921.853699 726.441833,921.558533 729.696289,921.919067 
	C735.370789,922.547852 738.971497,926.866333 738.955017,932.459290 
	C738.938110,938.201660 735.025452,942.500977 729.147522,943.064575 
	C727.000000,943.270447 724.822998,943.169067 722.192627,943.206238 
z"/>
<path fill="#060606" opacity="1.000000" stroke="none" 
	d="
M541.197021,943.146912 
	C536.993530,938.855957 537.501343,937.000671 543.160828,933.539307 
	C546.028381,936.100647 548.827942,938.601196 551.627441,941.101807 
	C551.514648,941.690857 551.401855,942.279907 551.289124,942.868958 
	C548.045288,943.010559 544.801514,943.152161 541.197021,943.146912 
z"/>
<path fill="#060606" opacity="1.000000" stroke="none" 
	d="
M542.536133,926.403564 
	C542.825317,924.381409 542.895386,922.009644 544.040100,921.243408 
	C545.050598,920.567078 547.259949,921.681824 548.939941,922.005676 
	C548.444275,923.707336 548.343567,925.701599 547.353943,927.037292 
	C546.088318,928.745483 544.142700,929.446228 542.536133,926.403564 
z"/>
<path fill="#060606" opacity="1.000000" stroke="none" 
	d="
M1150.636719,620.946411 
	C1156.382812,620.016602 1159.303101,621.401733 1160.220337,626.397095 
	C1160.880249,629.991760 1160.906616,634.116150 1159.729980,637.485474 
	C1158.979126,639.635681 1155.579346,641.993347 1153.251587,642.119446 
	C1151.211914,642.229980 1148.192139,639.808777 1147.040405,637.716064 
	C1144.074585,632.327332 1145.824097,625.015686 1150.636719,620.946411 
z"/>
<path fill="#FC7356" opacity="1.000000" stroke="none" 
	d="
M776.009644,779.500122 
	C777.945435,770.691956 783.010986,765.516174 791.610901,764.428467 
	C798.767395,763.523315 804.924683,765.897827 808.894348,772.059875 
	C813.328613,778.943237 813.355164,786.296936 809.093811,793.297058 
	C804.929443,800.137634 796.400269,803.000671 788.469604,800.692200 
	C781.201050,798.576416 776.290100,792.243530 775.907288,784.419067 
	C775.834229,782.926086 775.942139,781.424316 776.009644,779.500122 
z"/>
<path fill="#F67A60" opacity="1.000000" stroke="none" 
	d="
M1159.411621,780.567932 
	C1160.561279,783.358521 1161.549683,785.803406 1162.739014,788.745117 
	C1156.727905,788.745117 1151.199463,788.745117 1144.871216,788.745117 
	C1147.701538,781.854858 1150.436646,775.196533 1153.804199,766.998352 
	C1155.954102,772.218689 1157.602295,776.220520 1159.411621,780.567932 
z"/>
<path fill="#FC7356" opacity="1.000000" stroke="none" 
	d="
M770.031555,631.928162 
	C770.031799,627.957458 770.031799,624.468018 770.031799,620.369690 
	C775.683289,620.023254 781.227417,618.915039 785.353760,623.821411 
	C788.217896,627.226868 788.201416,631.452942 785.950195,635.029053 
	C782.301147,640.825684 776.291077,639.622253 770.031311,639.615723 
	C770.031311,636.952698 770.031311,634.681030 770.031555,631.928162 
z"/>
<path fill="#F67A60" opacity="1.000000" stroke="none" 
	d="
M521.307495,631.652100 
	C513.687744,631.959595 511.244293,628.757751 513.456604,621.963928 
	C513.607544,621.500427 513.861694,620.681824 514.065918,620.682434 
	C517.295105,620.692200 520.664490,620.296387 523.691528,621.125854 
	C525.124451,621.518494 526.565308,624.203491 526.834778,626.022827 
	C527.347778,629.486023 524.717773,630.894348 521.307495,631.652100 
z"/>
<path fill="#F67A60" opacity="1.000000" stroke="none" 
	d="
M473.556610,632.366821 
	C474.861115,628.720337 476.253662,625.455139 478.151886,621.004333 
	C480.162354,625.564941 481.628632,628.891052 483.328888,632.748047 
	C479.658478,632.748047 476.651550,632.748047 473.556610,632.366821 
z"/>
<path fill="#F67A60" opacity="1.000000" stroke="none" 
	d="
M358.451813,623.760254 
	C359.764862,626.767700 360.898895,629.464172 362.275543,632.737427 
	C358.706146,632.737427 355.716949,632.737427 352.092377,632.737427 
	C353.514954,629.414246 354.817535,626.278381 356.264954,623.210938 
	C356.356140,623.017578 357.577332,623.357483 358.451813,623.760254 
z"/>
<path fill="#F67A60" opacity="1.000000" stroke="none" 
	d="
M1003.724243,934.739502 
	C999.656189,937.383789 995.773010,939.723450 991.228882,942.461304 
	C991.228882,936.783630 991.228882,932.117249 991.228882,926.058594 
	C995.941711,929.171814 999.925415,931.803345 1003.724243,934.739502 
z"/>
<path fill="#F67A60" opacity="1.000000" stroke="none" 
	d="
M1207.160156,946.526978 
	C1206.464355,943.844727 1206.450073,941.195435 1205.768799,938.730530 
	C1205.320557,937.108276 1203.911133,935.751648 1202.932251,934.276062 
	C1201.909546,935.695007 1200.514282,936.986511 1199.972412,938.570007 
	C1199.461914,940.061279 1200.208374,941.972778 1199.731445,943.488464 
	C1199.346436,944.712097 1197.962769,945.621643 1197.022217,946.670593 
	C1196.040161,945.650146 1194.294922,944.688599 1194.210815,943.598938 
	C1193.881470,939.325684 1194.076050,935.012024 1194.076050,930.393433 
	C1198.326172,930.070740 1202.264404,929.220520 1206.023804,929.719299 
	C1207.895264,929.967651 1210.345947,932.417664 1210.922363,934.352112 
	C1211.840088,937.431763 1211.709473,940.944946 1211.361572,944.204346 
	C1211.261719,945.140320 1208.888916,945.833618 1207.160156,946.526978 
z"/>
<path fill="#F67A60" opacity="1.000000" stroke="none" 
	d="
M1185.609375,946.021973 
	C1185.145386,941.929077 1184.967651,938.141418 1184.871948,934.351685 
	C1184.839478,933.064819 1185.013794,931.772766 1185.111206,930.200317 
	C1186.760986,930.200317 1188.133545,930.200317 1189.998657,930.200317 
	C1189.998657,935.024048 1190.107300,939.630005 1189.957642,944.227600 
	C1189.868652,946.960815 1188.281494,947.562378 1185.609375,946.021973 
z"/>
<path fill="#F67A60" opacity="1.000000" stroke="none" 
	d="
M1185.256470,923.359680 
	C1187.522095,921.196228 1189.589844,921.291748 1190.505859,923.898804 
	C1190.824829,924.807007 1189.387817,927.274536 1188.375488,927.529175 
	C1185.490112,928.254639 1184.658325,926.317566 1185.256470,923.359680 
z"/>
<path fill="#E59484" opacity="1.000000" stroke="none" 
	d="
M1140.879395,945.113831 
	C1138.540039,945.223633 1136.611938,945.423767 1134.971802,945.593933 
	C1134.594604,941.953308 1134.205811,938.594604 1133.907227,935.227783 
	C1133.440308,929.963074 1136.288452,925.135742 1140.976074,923.127197 
	C1145.872559,921.029175 1151.670532,922.447815 1154.995117,926.557373 
	C1158.191650,930.508728 1158.499023,936.263428 1155.741699,940.536316 
	C1152.627808,945.361694 1147.722656,946.946106 1140.879395,945.113831 
M1151.767578,926.518250 
	C1148.090088,924.187012 1144.134766,923.791504 1140.507935,926.118042 
	C1133.739502,930.459900 1136.792114,936.751160 1137.741943,942.292786 
	C1143.827515,943.495667 1150.493774,946.118347 1154.237183,938.508545 
	C1156.179932,934.559204 1155.763184,930.413208 1151.767578,926.518250 
z"/>
<path fill="#F67A60" opacity="1.000000" stroke="none" 
	d="
M1091.095459,949.852905 
	C1087.251343,949.263367 1083.414917,949.492432 1080.598755,947.907959 
	C1075.270874,944.910156 1075.313354,924.312805 1080.389160,920.820984 
	C1081.935425,919.757202 1084.054443,919.161804 1085.952881,919.048218 
	C1090.257446,918.790710 1094.592407,918.839539 1098.906616,918.996277 
	C1104.747070,919.208374 1107.674805,922.166931 1107.919800,928.068726 
	C1108.078247,931.883728 1108.006470,935.711243 1107.947021,939.531738 
	C1107.833740,946.808472 1104.943359,949.656860 1097.544922,949.842468 
	C1095.552490,949.892517 1093.557495,949.851868 1091.095459,949.852905 
M1099.902344,941.359314 
	C1103.793213,935.599854 1103.711792,931.100830 1099.644043,927.107483 
	C1096.000610,923.530640 1090.466309,923.111877 1086.515503,926.113953 
	C1081.920044,929.605957 1080.933594,935.538879 1084.170776,940.216553 
	C1087.531738,945.072937 1093.562744,945.736145 1099.902344,941.359314 
z"/>
<path fill="#FFF5F1" opacity="1.000000" stroke="none" 
	d="
M1152.078735,926.774780 
	C1155.763184,930.413208 1156.179932,934.559204 1154.237183,938.508545 
	C1150.493774,946.118347 1143.827515,943.495667 1137.741943,942.292786 
	C1136.792114,936.751160 1133.739502,930.459900 1140.507935,926.118042 
	C1144.134766,923.791504 1148.090088,924.187012 1152.078735,926.774780 
M1144.431152,937.778931 
	C1146.317383,938.309387 1148.198975,938.860840 1150.109497,939.281006 
	C1150.174805,939.295349 1150.529663,937.992676 1150.749634,937.303833 
	C1148.805054,936.919250 1146.865601,936.500793 1144.908447,936.197021 
	C1144.686890,936.162598 1144.365112,936.774109 1144.431152,937.778931 
M1141.887939,935.403687 
	C1144.364868,932.226135 1144.022583,930.832214 1139.287598,929.106873 
	C1140.138672,931.531311 1140.733521,933.225464 1141.887939,935.403687 
z"/>
<path fill="#FFEEE7" opacity="1.000000" stroke="none" 
	d="
M1099.637329,941.623779 
	C1093.562744,945.736145 1087.531738,945.072937 1084.170776,940.216553 
	C1080.933594,935.538879 1081.920044,929.605957 1086.515503,926.113953 
	C1090.466309,923.111877 1096.000610,923.530640 1099.644043,927.107483 
	C1103.711792,931.100830 1103.793213,935.599854 1099.637329,941.623779 
M1095.544556,940.300659 
	C1099.238403,937.939331 1100.214966,934.661560 1098.070312,930.918213 
	C1096.255981,927.751465 1092.791992,926.586243 1089.973999,928.568787 
	C1087.976807,929.973755 1086.076172,933.385925 1086.303589,935.687683 
	C1086.756104,940.268677 1090.387939,941.705505 1095.544556,940.300659 
z"/>
<path fill="#E59484" opacity="1.000000" stroke="none" 
	d="
M1144.260498,937.432495 
	C1144.365112,936.774109 1144.686890,936.162598 1144.908447,936.197021 
	C1146.865601,936.500793 1148.805054,936.919250 1150.749634,937.303833 
	C1150.529663,937.992676 1150.174805,939.295349 1150.109497,939.281006 
	C1148.198975,938.860840 1146.317383,938.309387 1144.260498,937.432495 
z"/>
<path fill="#E59484" opacity="1.000000" stroke="none" 
	d="
M1141.608154,935.161621 
	C1140.733521,933.225464 1140.138672,931.531311 1139.287598,929.106873 
	C1144.022583,930.832214 1144.364868,932.226135 1141.608154,935.161621 
z"/>
<path fill="#F67A60" opacity="1.000000" stroke="none" 
	d="
M1095.189697,940.476318 
	C1090.387939,941.705505 1086.756104,940.268677 1086.303589,935.687683 
	C1086.076172,933.385925 1087.976807,929.973755 1089.973999,928.568787 
	C1092.791992,926.586243 1096.255981,927.751465 1098.070312,930.918213 
	C1100.214966,934.661560 1099.238403,937.939331 1095.189697,940.476318 
z"/>
</svg>